<svg width="20" height="20" viewBox="0 0 20 20" fill="none" xmlns="http://www.w3.org/2000/svg">
<g clip-path="url(#clip0_171_1277)">
<path d="M15.1718 2.6294C15.0874 2.49253 14.952 2.39479 14.7956 2.35768C14.6391 2.32057 14.4742 2.34713 14.3373 2.43152C14.2004 2.5159 14.1027 2.6512 14.0655 2.80766C14.0284 2.96411 14.055 3.12889 14.1394 3.26576C14.2465 3.43869 14.3607 3.60899 14.4819 3.77667C14.5286 3.84113 14.5876 3.89577 14.6555 3.93745C14.7233 3.97913 14.7987 4.00704 14.8774 4.01959C14.956 4.03214 15.0363 4.02909 15.1138 4.01059C15.1913 3.9921 15.2643 3.95854 15.3288 3.91182C15.3933 3.8651 15.4479 3.80614 15.4896 3.73831C15.5313 3.67048 15.5592 3.5951 15.5718 3.51648C15.5844 3.43786 15.5813 3.35753 15.5628 3.2801C15.5443 3.20266 15.5107 3.12962 15.464 3.06515C15.3601 2.92253 15.2627 2.77727 15.1718 2.6294ZM13.5168 8.21848C13.4695 8.15445 13.4101 8.10036 13.3419 8.0593C13.2737 8.01824 13.1981 7.991 13.1193 7.97916C13.0406 7.96731 12.9603 7.97108 12.883 7.99026C12.8058 8.00943 12.733 8.04363 12.669 8.09091C12.6049 8.13818 12.5508 8.19761 12.5098 8.26579C12.4687 8.33397 12.4415 8.40957 12.4296 8.48827C12.4178 8.56698 12.4215 8.64725 12.4407 8.72449C12.4599 8.80174 12.4941 8.87445 12.5414 8.93848C12.6444 9.07788 12.7396 9.22091 12.8299 9.36818C12.8716 9.43603 12.9263 9.49501 12.9907 9.54175C13.0552 9.58849 13.1283 9.62208 13.2057 9.64059C13.2832 9.65911 13.3635 9.66219 13.4422 9.64966C13.5208 9.63713 13.5962 9.60924 13.6641 9.56757C13.732 9.52591 13.791 9.47129 13.8377 9.40683C13.8845 9.34237 13.9181 9.26934 13.9366 9.1919C13.9551 9.11446 13.9582 9.03413 13.9457 8.95551C13.9331 8.87688 13.9052 8.80148 13.8636 8.73363C13.7557 8.55788 13.6405 8.38576 13.5168 8.21848ZM11.2695 6.1403C11.1326 6.05925 10.9692 6.03531 10.8147 6.07363C10.6602 6.11196 10.527 6.20948 10.4439 6.34515C10.3607 6.48081 10.3342 6.64374 10.3702 6.79874C10.4061 6.95375 10.5016 7.0884 10.636 7.17364C10.7831 7.26374 10.9272 7.3605 11.0683 7.46394C11.1326 7.51082 11.2056 7.54456 11.283 7.56325C11.3604 7.58193 11.4407 7.58519 11.5194 7.57284C11.5981 7.56048 11.6735 7.53276 11.7415 7.49125C11.8095 7.44974 11.8686 7.39526 11.9155 7.33091C11.9623 7.26656 11.9961 7.19361 12.0148 7.11622C12.0335 7.03883 12.0367 6.95852 12.0244 6.87987C12.012 6.80122 11.9843 6.72578 11.9428 6.65784C11.9013 6.58991 11.8468 6.53082 11.7824 6.48394C11.6151 6.36192 11.4441 6.24737 11.2695 6.1403ZM17.3681 4.82697C17.221 4.73647 17.0766 4.6395 16.9347 4.53606C16.8703 4.48918 16.7973 4.45545 16.7198 4.43678C16.6424 4.41811 16.562 4.41487 16.4833 4.42725C16.4046 4.43963 16.3291 4.46739 16.2612 4.50894C16.1932 4.55048 16.1341 4.60501 16.0872 4.66939C16.0403 4.73378 16.0066 4.80677 15.9879 4.8842C15.9692 4.96162 15.966 5.04197 15.9784 5.12065C16.0034 5.27954 16.0905 5.42199 16.2206 5.51667C16.3883 5.63869 16.5594 5.75323 16.734 5.8603C16.8019 5.90197 16.8773 5.92986 16.956 5.94239C17.0346 5.95492 17.115 5.95184 17.1924 5.93332C17.2699 5.91481 17.3429 5.88122 17.4074 5.83448C17.4719 5.78774 17.5265 5.72876 17.5682 5.66091C17.6099 5.59306 17.6378 5.51767 17.6503 5.43904C17.6628 5.36041 17.6598 5.28008 17.6412 5.20264C17.6227 5.12521 17.5891 5.05217 17.5424 4.98771C17.4956 4.92326 17.436 4.86864 17.3681 4.82697ZM18.2454 1.75727C17.406 0.918184 16.3366 0.346764 15.1724 0.115273C14.0082 -0.116218 12.8015 0.00261605 11.7049 0.456749C10.6082 0.910882 9.67092 1.67992 9.01146 2.66661C8.352 3.65329 8.00002 4.81332 8.00002 6C8.00002 7.18668 8.352 8.34671 9.01146 9.3334C9.67092 10.3201 10.6082 11.0891 11.7049 11.5433C12.8015 11.9974 14.0082 12.1162 15.1724 11.8847C16.3366 11.6532 17.406 11.0818 18.2454 10.2427C19.369 9.11648 20 7.5907 20 6C20 4.4093 19.369 2.88352 18.2454 1.75727ZM17.4742 9.47121C16.7338 10.2131 15.7737 10.6963 14.7365 10.8488C14.6843 10.7513 14.6056 10.6704 14.5095 10.6156C14.4134 10.5608 14.3038 10.5342 14.1932 10.5389C14.0826 10.5436 13.9757 10.5794 13.8845 10.6421C13.7934 10.7049 13.7218 10.792 13.6781 10.8936C12.4916 10.8184 11.3732 10.3133 10.5324 9.47304C9.69156 8.63277 9.18592 7.51492 9.11015 6.32879C9.21098 6.28415 9.29732 6.21221 9.35939 6.12108C9.42146 6.02996 9.4568 5.92329 9.4614 5.81314C9.46601 5.70299 9.43969 5.59375 9.38544 5.49777C9.33119 5.40178 9.25116 5.32289 9.1544 5.27C9.30594 4.23295 9.7879 3.27238 10.5288 2.53085C11.2696 1.78932 12.2299 1.30636 13.267 1.15364C13.3198 1.24487 13.3955 1.32072 13.4866 1.37367C13.5778 1.42661 13.6812 1.45481 13.7866 1.45546C13.8335 1.45547 13.8803 1.45018 13.926 1.4397C14.0131 1.41818 14.0943 1.37723 14.1634 1.31993C14.2324 1.26262 14.2877 1.19044 14.3249 1.10879C15.5126 1.18271 16.6325 1.68777 17.474 2.52903C18.3155 3.3703 18.8207 4.48984 18.8946 5.67727C18.7942 5.72174 18.7081 5.7934 18.6462 5.88416C18.5844 5.97493 18.5491 6.08118 18.5444 6.19092C18.5398 6.30066 18.5659 6.40952 18.6198 6.50521C18.6738 6.6009 18.7534 6.6796 18.8498 6.73242C18.6974 7.76949 18.2155 8.72987 17.4742 9.47121Z" fill="black"/>
<path fill-rule="evenodd" clip-rule="evenodd" d="M9.49541 18.3867C9.52205 18.3911 9.54871 18.3932 9.57517 18.4005C9.68284 18.4294 9.78357 18.4797 9.8713 18.5484C9.95904 18.6171 10.032 18.7029 10.0857 18.8006L13.1511 23.7846L13.2822 23.7866C13.5788 23.7932 14.7425 23.2906 15.0024 23.1476C15.2617 23.004 15.4787 22.7948 15.6318 22.541L15.701 22.4286L13.242 17.2867C13.1187 17.0632 13.1212 16.794 13.2174 16.5609L6.74202 1.70966C6.57943 1.41505 5.64669 1.12025 4.74201 1.28668C4.24933 1.37762 2.94058 1.90321 2.37129 2.2174C1.99492 2.42537 0.488635 3.28707 0.242025 4.14114C0.148355 4.46554 0.225693 4.70959 0.307207 4.85729L9.49541 18.3867ZM12.3627 17.2023L14.8982 21.7964C14.7893 21.9256 14.6585 22.0396 14.5013 22.1266C14.3443 22.2133 13.3075 22.6933 13.1402 22.7166L10.6046 18.1227C10.4954 17.9247 10.3352 17.7595 10.1407 17.6442L1.63448 4.85728C1.4712 4.61847 1.50072 4.26359 1.70175 4.05555C2.11215 3.63084 2.2852 3.54086 2.87129 3.2174C3.26201 3.00176 4.93444 2.40847 5.41538 2.31071C5.69749 2.25336 5.95029 2.50271 6.06474 2.76686L12.2053 16.5541C12.199 16.7803 12.2534 17.0041 12.3627 17.2023Z" fill="black"/>
<path d="M5.19341 3.06777C5.07009 3.38118 3.39888 4.61052 1.18351 5.29771C0.811418 5.08153 0.256509 4.67512 1.0136 4.77893C1.77069 4.88274 4.40584 3.53784 5.19341 3.06777Z" fill="black"/>
</g>
<defs>
<clipPath id="clip0_171_1277">
<rect width="20" height="20" fill="white"/>
</clipPath>
</defs>
</svg>
