<svg width="30" height="30" viewBox="0 0 30 30" fill="none" xmlns="http://www.w3.org/2000/svg">
<g clip-path="url(#clip0_187_637)">
<path d="M22.7577 3.94409C22.6311 3.73879 22.4281 3.59218 22.1934 3.53652C21.9586 3.48085 21.7114 3.52069 21.506 3.64727C21.3007 3.77386 21.154 3.97681 21.0983 4.21148C21.0427 4.44616 21.0825 4.69334 21.2091 4.89864C21.3698 5.15803 21.541 5.41349 21.7229 5.665C21.793 5.7617 21.8815 5.84365 21.9832 5.90617C22.085 5.9687 22.1981 6.01057 22.3161 6.02939C22.434 6.04822 22.5545 6.04363 22.6707 6.01589C22.7869 5.98815 22.8965 5.93781 22.9932 5.86773C23.09 5.79765 23.1719 5.70921 23.2345 5.60746C23.297 5.50571 23.3389 5.39264 23.3577 5.27471C23.3766 5.15678 23.372 5.0363 23.3442 4.92014C23.3165 4.80399 23.2661 4.69443 23.196 4.59773C23.0402 4.38379 22.8941 4.16591 22.7577 3.94409ZM20.2752 12.3277C20.2043 12.2317 20.1151 12.1505 20.0128 12.0889C19.9105 12.0274 19.7971 11.9865 19.679 11.9687C19.5609 11.951 19.4405 11.9566 19.3246 11.9854C19.2087 12.0141 19.0996 12.0654 19.0035 12.1364C18.9074 12.2073 18.8263 12.2964 18.7647 12.3987C18.7031 12.501 18.6622 12.6144 18.6444 12.7324C18.6267 12.8505 18.6323 12.9709 18.6611 13.0867C18.6899 13.2026 18.7412 13.3117 18.8121 13.4077C18.9667 13.6168 19.1095 13.8314 19.2449 14.0523C19.3075 14.154 19.3894 14.2425 19.4861 14.3126C19.5828 14.3827 19.6924 14.4331 19.8086 14.4609C19.9248 14.4887 20.0453 14.4933 20.1633 14.4745C20.2813 14.4557 20.3944 14.4139 20.4962 14.3514C20.598 14.2889 20.6865 14.2069 20.7566 14.1102C20.8268 14.0136 20.8771 13.904 20.9049 13.7879C20.9327 13.6717 20.9373 13.5512 20.9185 13.4333C20.8997 13.3153 20.8579 13.2022 20.7954 13.1005C20.6335 12.8368 20.4607 12.5786 20.2752 12.3277ZM16.9043 9.21045C16.6989 9.08888 16.4538 9.05296 16.2221 9.11045C15.9904 9.16794 15.7906 9.31422 15.6658 9.51772C15.5411 9.72122 15.5014 9.9656 15.5553 10.1981C15.6092 10.4306 15.7524 10.6326 15.9541 10.7605C16.1747 10.8956 16.3908 11.0408 16.6024 11.1959C16.699 11.2662 16.8084 11.3168 16.9245 11.3449C17.0406 11.3729 17.1611 11.3778 17.2792 11.3593C17.3972 11.3407 17.5104 11.2991 17.6123 11.2369C17.7142 11.1746 17.8029 11.0929 17.8732 10.9964C17.9435 10.8998 17.9942 10.7904 18.0222 10.6743C18.0502 10.5582 18.0551 10.4378 18.0366 10.3198C18.0181 10.2018 17.9765 10.0887 17.9142 9.98677C17.8519 9.88486 17.7702 9.79622 17.6736 9.72591C17.4226 9.54288 17.1662 9.37106 16.9043 9.21045ZM26.0523 7.24046C25.8316 7.1047 25.6149 6.95924 25.4021 6.80409C25.3055 6.73378 25.196 6.68317 25.0798 6.65517C24.9636 6.62716 24.8431 6.62231 24.725 6.64088C24.607 6.65945 24.4937 6.70108 24.3918 6.7634C24.2898 6.82573 24.2012 6.90751 24.1308 7.00409C24.0605 7.10067 24.0099 7.21016 23.9819 7.3263C23.9538 7.44244 23.949 7.56295 23.9676 7.68097C24.0051 7.91931 24.1358 8.13299 24.3309 8.275C24.5825 8.45803 24.8392 8.62985 25.1011 8.79045C25.2029 8.85295 25.316 8.89479 25.434 8.91358C25.552 8.93238 25.6725 8.92775 25.7887 8.89998C25.9049 8.87221 26.0144 8.82183 26.1112 8.75172C26.2079 8.68161 26.2898 8.59314 26.3523 8.49136C26.4148 8.38959 26.4567 8.2765 26.4755 8.15856C26.4943 8.04061 26.4897 7.92012 26.4619 7.80397C26.4341 7.68781 26.3837 7.57826 26.3136 7.48157C26.2435 7.38488 26.1541 7.30295 26.0523 7.24046ZM27.3681 2.63591C26.109 1.37728 24.505 0.520147 22.7587 0.17291C21.0124 -0.174328 19.2023 0.00392407 17.5573 0.685123C15.9124 1.36632 14.5064 2.51987 13.5172 3.99991C12.528 5.47994 12.0001 7.21998 12.0001 9C12.0001 10.78 12.528 12.5201 13.5172 14.0001C14.5064 15.4801 15.9124 16.6337 17.5573 17.3149C19.2023 17.9961 21.0124 18.1743 22.7587 17.8271C24.505 17.4799 26.109 16.6227 27.3681 15.3641C29.0535 13.6747 30.0001 11.3861 30.0001 9C30.0001 6.61395 29.0535 4.32528 27.3681 2.63591ZM26.2114 14.2068C25.1008 15.3197 23.6605 16.0444 22.1048 16.2732C22.0265 16.1269 21.9084 16.0057 21.7643 15.9234C21.6201 15.8412 21.4557 15.8013 21.2898 15.8083C21.124 15.8154 20.9635 15.869 20.8268 15.9632C20.6901 16.0573 20.5828 16.1881 20.5171 16.3404C18.7374 16.2275 17.0598 15.47 15.7986 14.2096C14.5374 12.9492 13.7789 11.2724 13.6653 9.49318C13.8165 9.42623 13.946 9.31831 14.0391 9.18163C14.1322 9.04494 14.1852 8.88494 14.1921 8.71971C14.199 8.55449 14.1596 8.39062 14.0782 8.24665C13.9968 8.10268 13.8768 7.98433 13.7316 7.905C13.9589 6.34942 14.6819 4.90856 15.7932 3.79627C16.9045 2.68398 18.3448 1.95954 19.9006 1.73046C19.9797 1.8673 20.0933 1.98108 20.23 2.0605C20.3667 2.13992 20.5218 2.18221 20.6799 2.18318C20.7503 2.1832 20.8204 2.17527 20.889 2.15955C21.0197 2.12726 21.1415 2.06584 21.2451 1.97989C21.3487 1.89393 21.4315 1.78566 21.4874 1.66319C23.269 1.77407 24.9488 2.53165 26.211 3.79355C27.4733 5.05544 28.231 6.73477 28.342 8.51591C28.1913 8.58261 28.0622 8.6901 27.9694 8.82624C27.8766 8.96239 27.8237 9.12177 27.8167 9.28638C27.8097 9.45099 27.8489 9.61429 27.9298 9.75781C28.0107 9.90134 28.1302 10.0194 28.2747 10.0986C28.0461 11.6542 27.3232 13.0948 26.2114 14.2068Z" fill="#2F3D50"/>
<path fill-rule="evenodd" clip-rule="evenodd" d="M14.2431 27.5801C14.2831 27.5867 14.3231 27.5899 14.3628 27.6008C14.5243 27.6441 14.6754 27.7195 14.807 27.8226C14.9386 27.9257 15.048 28.0544 15.1286 28.2008L19.7267 35.6768L19.9233 35.6799C20.3682 35.6898 22.1138 34.9359 22.5036 34.7213C22.8926 34.506 23.2181 34.1922 23.4477 33.8115L23.5516 33.6429L19.8631 25.9301C19.678 25.5949 19.6818 25.191 19.8261 24.8414L10.1131 2.56449C9.86917 2.12258 8.47007 1.68037 7.11304 1.93002C6.37402 2.06644 4.4109 2.85482 3.55696 3.3261C2.99242 3.63806 0.732983 4.9306 0.363067 6.21171C0.222564 6.69831 0.338569 7.06439 0.460842 7.28593L14.2431 27.5801ZM18.544 25.8034L22.3473 32.6946C22.1839 32.8884 21.9878 33.0594 21.752 33.1899C21.5164 33.3199 19.9614 34.0399 19.7103 34.0748L15.907 27.1841C15.7431 26.8871 15.5029 26.6393 15.2111 26.4663L2.45176 7.28592C2.20683 6.9277 2.25111 6.39538 2.55265 6.08333C3.16825 5.44626 3.42783 5.31129 4.30696 4.8261C4.89305 4.50264 7.40169 3.61271 8.1231 3.46606C8.54626 3.38004 8.92546 3.75406 9.09715 4.15028L18.3079 24.8311C18.2986 25.1705 18.3801 25.5062 18.544 25.8034Z" fill="#2F3D50"/>
<path d="M7.79015 4.60166C7.60516 5.07177 5.09835 6.91578 1.77529 7.94656C1.21716 7.62229 0.384795 7.01268 1.52043 7.1684C2.65607 7.32412 6.60879 5.30676 7.79015 4.60166Z" fill="#2F3D50"/>
</g>
<defs>
<clipPath id="clip0_187_637">
<rect width="30" height="30" fill="white"/>
</clipPath>
</defs>
</svg>
