<svg width="20" height="20" viewBox="0 0 20 20" fill="none" xmlns="http://www.w3.org/2000/svg">
<path d="M10 1.6665C8.60645 1.66793 7.2355 2.01881 6.01261 2.68703C4.78971 3.35526 3.75392 4.31949 3 5.4915C1.93964 7.15446 1.50346 9.13961 1.76902 11.0939C2.03459 13.0482 2.98469 14.845 4.45036 16.1647C5.91603 17.4844 7.80226 18.2415 9.77362 18.3013C11.745 18.3612 13.6736 17.7199 15.2167 16.4915C16.5596 15.4106 17.5343 13.9397 18.0063 12.2816C18.4784 10.6236 18.4246 8.85993 17.8523 7.23373C17.2801 5.60753 16.2176 4.19882 14.8113 3.20174C13.4049 2.20465 11.7239 1.66827 10 1.6665ZM11.1167 3.5C12.2682 3.79808 13.869 4.44865 14.7101 5.28974C15.5512 6.13083 16.5 8 16.5 9C15.5 8.5 13.6967 8.76836 12.5 9.48317C11.8991 8.80149 11.2288 8.18427 10.5 7.6415C11.5 6 11.5 5 11.1167 3.5ZM10.5 3.5C10.4973 4.69586 10 6 9.05 6.72484C8.925 6.65817 8.80834 6.58317 8.68334 6.52484C7.61031 5.95866 6.18794 5.74645 5 5.5C5.6192 4.8771 6.63039 4.18253 7.44126 3.84503C8.25213 3.50752 9.6217 3.5004 10.5 3.5ZM4.5 6.5C5.80702 6.68157 6.73952 7.38737 7.90834 7.99984L8.01667 8.0665C7.5 9 6.77354 9.36323 6.5 9.5C5.5 10 4.5 10.4915 3.5 10.5C3.5 8.5 3.95789 7.47976 4.5 6.5ZM8.5 16.5C7.34847 16.2019 6.131 15.551 5.28991 14.7099C4.44882 13.8688 3.79808 12.6515 3.5 11.5C5 11.5 5.75958 11.3921 6.77354 10.9323C7.78751 10.4726 8.69794 9.81241 9.45 8.9915C10.0524 9.43683 10.6106 9.93915 11.1167 10.4915C10.2728 11.2439 9.59089 12.1602 9.11239 13.1845C8.63389 14.2088 8.53549 15.37 8.5 16.5ZM9.5 16.5C9.5018 15.5845 9.63297 14.8387 10 14C10.322 13.2641 11.4621 12.4141 12.1333 11.7915C12.1833 11.8582 12.2333 11.9165 12.275 11.9832C12.9733 13.0525 13.4913 14.2293 13.8083 15.4665C12.693 16.2496 11 16.5 9.5 16.5ZM15.175 14.1665C14.8131 13.064 14.3089 12.0135 13.675 11.0415L13.5 10.8332C14.5 10 15.5 9.5 16.5 10C16.4917 11.5182 16.1322 12.988 15.175 14.1665Z" fill="black"/>
</svg>
