<svg width="30" height="30" viewBox="0 0 30 30" fill="none" xmlns="http://www.w3.org/2000/svg">
<path d="M15 2.49951C12.9097 2.50165 10.8533 3.02797 9.01891 4.0303C7.18456 5.03264 5.63087 6.47899 4.50001 8.23701C2.90946 10.7315 2.25519 13.7092 2.65354 16.6406C3.05188 19.5721 4.47703 22.2672 6.67554 24.2468C8.87405 26.2263 11.7034 27.362 14.6604 27.4517C17.6174 27.5415 20.5105 26.5796 22.825 24.737C24.8394 23.1156 26.3014 20.9093 27.0095 18.4222C27.7176 15.9351 27.6369 13.2897 26.7785 10.8503C25.9202 8.41105 24.3264 6.29799 22.2169 4.80236C20.1074 3.30673 17.5859 2.50216 15 2.49951ZM16.675 5.24976C18.4023 5.69687 20.8035 6.67273 22.0651 7.93437C23.3268 9.19601 24.75 11.9998 24.75 13.4998C23.25 12.7498 20.545 13.1523 18.75 14.2245C17.8487 13.202 16.8432 12.2762 15.75 11.462C17.25 8.99976 17.25 7.49976 16.675 5.24976ZM15.75 5.24976C15.7459 7.04354 15 8.99976 13.575 10.087C13.3875 9.98701 13.2125 9.87451 13.025 9.78701C11.4155 8.93775 9.28192 8.61943 7.5 8.24976C8.42881 7.31541 9.94559 6.27355 11.1619 5.7673C12.3782 5.26104 14.4325 5.25036 15.75 5.24976ZM6.75 9.74976C8.71052 10.0221 10.1093 11.0808 11.8625 11.9995L12.025 12.0995C11.25 13.4998 10.1603 14.0446 9.75 14.2498C8.25 14.9998 6.75 15.737 5.25 15.7498C5.25 12.7498 5.93684 11.2194 6.75 9.74976ZM12.75 24.7498C11.0227 24.3026 9.1965 23.3263 7.93486 22.0647C6.67323 20.803 5.69711 18.977 5.25 17.2498C7.5 17.2498 8.63936 17.0878 10.1603 16.3982C11.6813 15.7087 13.0469 14.7184 14.175 13.487C15.0786 14.155 15.9158 14.9085 16.675 15.737C15.4092 16.8656 14.3863 18.24 13.6686 19.7765C12.9508 21.313 12.8032 23.0547 12.75 24.7498ZM14.25 24.7498C14.2527 23.3765 14.4495 22.2578 15 20.9998C15.4831 19.8959 17.1931 18.6208 18.2 17.687C18.275 17.787 18.35 17.8745 18.4125 17.9745C19.46 19.5785 20.237 21.3437 20.7125 23.1995C19.0395 24.3742 16.5 24.7498 14.25 24.7498ZM22.7625 21.2495C22.2197 19.5958 21.4633 18.0199 20.5125 16.562L20.25 16.2495C21.75 14.9998 23.25 14.2498 24.75 14.9998C24.7376 17.2771 24.1983 19.4817 22.7625 21.2495Z" fill="#2F3D50"/>
</svg>
