<svg width="30" height="30" viewBox="0 0 30 30" fill="none" xmlns="http://www.w3.org/2000/svg">
<g clip-path="url(#clip0_187_625)">
<path fill-rule="evenodd" clip-rule="evenodd" d="M20.25 30.0001C25.6348 30.0001 30 25.6349 30 20.2501C30 14.8653 25.6348 10.5001 20.25 10.5001C14.8653 10.5001 10.5 14.8653 10.5 20.2501C10.5 25.6349 14.8653 30.0001 20.25 30.0001ZM20.25 28.172C24.2886 28.172 28.1719 24.2887 28.1719 20.2501C28.1719 16.2115 24.2886 12.3282 20.25 12.3282C16.2115 12.3282 12.3282 16.2115 12.3282 20.2501C12.3282 24.2887 16.2115 28.172 20.25 28.172Z" fill="#2F3D50"/>
<path d="M13.931 13.4251C13.7577 13.5855 13.5908 13.7526 13.4304 13.926L25.7344 26.3439C25.9091 26.1853 26.1819 25.906 26.3438 25.7345L13.931 13.4251Z" fill="#2F3D50"/>
<path d="M18.6508 13.8036C18.349 13.4985 17.8562 13.4982 17.554 13.803C17.2557 14.1038 17.2556 14.5887 17.5537 14.8897L18.6763 16.0232C18.9591 16.3086 19.4205 16.3083 19.7028 16.0223L19.7776 15.9465C20.0526 15.668 20.0524 15.2202 19.7771 14.942L18.6508 13.8036Z" fill="#2F3D50"/>
<path d="M21.9103 17.0954C21.6089 16.791 21.1172 16.7904 20.8151 17.0941C20.5162 17.3947 20.5158 17.8802 20.8142 18.1812L21.9015 19.2779C22.2033 19.5822 22.6954 19.582 22.9968 19.2773C23.294 18.9769 23.2939 18.4932 22.9967 18.1929L21.9103 17.0954Z" fill="#2F3D50"/>
<path d="M24.0732 20.3849C23.7749 20.6858 23.7749 21.1708 24.0732 21.4717L25.1604 22.5683C25.4625 22.873 25.955 22.8726 26.2566 22.5675C26.5537 22.2669 26.5535 21.7832 26.2562 21.4828L25.1698 20.3853C24.8679 20.0804 24.3753 20.0802 24.0732 20.3849Z" fill="#2F3D50"/>
<path d="M21.4028 26.3612C21.7045 26.6657 22.1965 26.6657 22.4982 26.3614C22.7963 26.0608 22.7963 25.5761 22.4982 25.2755L21.4105 24.1784C21.1085 23.8738 20.6161 23.8742 20.3146 24.1792C20.0175 24.4798 20.0179 24.9636 20.3154 25.2638L21.4028 26.3612Z" fill="#2F3D50"/>
<path d="M18.1431 23.0705C18.4449 23.3754 18.9375 23.3756 19.2396 23.0709C19.5379 22.7701 19.5379 22.285 19.2396 21.9842L18.1524 20.8876C17.8504 20.583 17.3578 20.5834 17.0563 20.8885C16.7592 21.189 16.7594 21.6727 17.0567 21.9731L18.1431 23.0705Z" fill="#2F3D50"/>
<path d="M14.8826 19.7796C15.1845 20.0846 15.6771 20.0849 15.9794 19.7803C16.2781 19.4794 16.2783 18.9938 15.9797 18.6927L14.8936 17.5973C14.5914 17.2924 14.0983 17.2929 13.7967 17.5985C13.4997 17.8992 13.5001 18.3829 13.7974 18.6833L14.8826 19.7796Z" fill="#2F3D50"/>
<path d="M17.8038 4.71229C17.7236 4.48738 17.5572 4.30322 17.3405 4.20116L16.0944 3.60943C16.0765 3.57324 16.0558 3.53904 16.0416 3.50053C15.9825 3.34467 15.9556 3.17848 15.9624 3.01195C15.9693 2.84542 16.0097 2.68198 16.0813 2.53148L19.932 -5.58902L19.82 -5.74998C19.569 -6.1157 19.2259 -6.40864 18.8253 -6.59917C18.4246 -6.78856 17.9811 -6.86937 17.5394 -6.8335L17.3425 -6.8194L13.4905 1.30306C13.3269 1.64796 12.9978 1.88003 12.631 1.96676L11.4005 1.38351C11.2936 1.33274 11.1778 1.30353 11.0597 1.29755C10.9415 1.29157 10.8234 1.30894 10.712 1.34868C10.6005 1.38841 10.498 1.44972 10.4103 1.5291C10.3226 1.60848 10.2514 1.70437 10.2008 1.81129L0.340759 22.6005C0.125129 23.0552 0.0765146 23.7969 1.06858 24.7498C1.60922 25.2684 2.39053 25.7834 3.26906 26.2C3.85017 26.4753 5.84401 27.3404 7.0961 26.8939C7.57169 26.7243 7.80039 26.4174 7.90849 26.1894L17.7683 5.4008C17.8715 5.18462 17.884 4.93719 17.8038 4.71229ZM14.1011 1.59231L18 -5.30399C18.2519 -5.2846 17.9682 -5.4188 18.211 -5.30399C18.0366 -5.48679 18.4534 -5.18903 18.211 -5.30399L15.4705 2.24178C15.3255 2.54727 15.2649 2.88595 15.2947 3.22276L15.278 3.22221L13.4623 2.36068L13.4518 2.34941C13.7318 2.15943 13.956 1.89804 14.1011 1.59231ZM1.58207 22.6005L11.3321 3.0001L13.4623 3.99833L5.25004 21.0001C4.50004 22.5001 3.43916 22.479 3.00004 22.6005C2.36351 22.7754 1.58207 22.6005 1.58207 22.6005ZM6.83207 24.7501C6.83207 24.7501 6.26755 24.6056 6.00004 24.0001C5.81632 23.5847 5.43066 22.9514 6.00004 21.7501C8.11195 17.2942 13.9553 4.20116 13.9553 4.20116L16.0813 5.2501L6.83207 24.7501Z" fill="#2F3D50"/>
</g>
<defs>
<clipPath id="clip0_187_625">
<rect width="30" height="30" fill="white"/>
</clipPath>
</defs>
</svg>
