<svg width="20" height="20" viewBox="0 0 20 20" fill="none" xmlns="http://www.w3.org/2000/svg">
<g clip-path="url(#clip0_171_1236)">
<path fill-rule="evenodd" clip-rule="evenodd" d="M13.5 20.0002C17.0899 20.0002 20 17.0901 20 13.5002C20 9.91038 17.0899 7.00023 13.5 7.00023C9.91015 7.00023 7 9.91038 7 13.5002C7 17.0901 9.91015 20.0002 13.5 20.0002ZM13.5 18.7815C16.1924 18.7815 18.7813 16.1926 18.7813 13.5002C18.7813 10.8078 16.1924 8.21898 13.5 8.21898C10.8076 8.21898 8.21875 10.8078 8.21875 13.5002C8.21875 16.1926 10.8076 18.7815 13.5 18.7815Z" fill="black"/>
<path d="M9.2873 8.95021C9.17181 9.05718 9.06048 9.1686 8.9536 9.28418L17.1563 17.5627C17.2727 17.457 17.4546 17.2708 17.5625 17.1565L9.2873 8.95021Z" fill="black"/>
<path d="M12.4339 9.20256C12.2326 8.99914 11.9041 8.99897 11.7026 9.20217C11.5038 9.4027 11.5037 9.72597 11.7024 9.9266L12.4509 10.6823C12.6393 10.8726 12.947 10.8723 13.1352 10.6817L13.1851 10.6312C13.3684 10.4455 13.3682 10.1469 13.1847 9.96148L12.4339 9.20256Z" fill="black"/>
<path d="M14.6068 11.3971C14.4059 11.1942 14.0781 11.1938 13.8767 11.3963C13.6774 11.5966 13.6772 11.9203 13.8761 12.121L14.601 12.8521C14.8022 13.055 15.1302 13.0548 15.3312 12.8517C15.5293 12.6514 15.5293 12.329 15.3311 12.1288L14.6068 11.3971Z" fill="black"/>
<path d="M16.0488 13.5901C15.8499 13.7907 15.8499 14.1141 16.0488 14.3146L16.7736 15.0457C16.975 15.2488 17.3033 15.2486 17.5044 15.0451C17.7024 14.8448 17.7023 14.5223 17.5041 14.3221L16.7798 13.5904C16.5786 13.3871 16.2502 13.387 16.0488 13.5901Z" fill="black"/>
<path d="M14.2685 17.5743C14.4696 17.7773 14.7976 17.7773 14.9988 17.5744C15.1975 17.374 15.1975 17.0509 14.9988 16.8505L14.2736 16.1191C14.0723 15.916 13.744 15.9163 13.5431 16.1196C13.345 16.32 13.3452 16.6426 13.5436 16.8427L14.2685 17.5743Z" fill="black"/>
<path d="M12.0954 15.3805C12.2966 15.5838 12.625 15.5839 12.8264 15.3808C13.0252 15.1802 13.0252 14.8568 12.8264 14.6563L12.1016 13.9252C11.9002 13.7222 11.5719 13.7224 11.3709 13.9258C11.1728 14.1262 11.1729 14.4486 11.3711 14.6489L12.0954 15.3805Z" fill="black"/>
<path d="M9.92171 13.1866C10.123 13.3899 10.4514 13.3901 10.6529 13.187C10.8521 12.9864 10.8521 12.6627 10.6531 12.462L9.92907 11.7317C9.72755 11.5284 9.39887 11.5288 9.19777 11.7325C8.99981 11.933 9.00002 12.2554 9.19825 12.4557L9.92171 13.1866Z" fill="black"/>
<path d="M11.8692 3.14169C11.8157 2.99175 11.7048 2.86898 11.5603 2.80093L10.7296 2.40645C10.7177 2.38232 10.7039 2.35952 10.6944 2.33385C10.655 2.22994 10.6371 2.11915 10.6416 2.00813C10.6462 1.89711 10.6731 1.78815 10.7208 1.68781L13.288 -3.72585L13.2133 -3.83316C13.046 -4.07697 12.8172 -4.27227 12.5502 -4.39929C12.283 -4.52555 11.9874 -4.57941 11.6929 -4.5555L11.5616 -4.54611L8.99363 0.868868C8.88458 1.0988 8.6652 1.25351 8.42063 1.31133L7.60029 0.922505C7.52906 0.888655 7.45186 0.86918 7.3731 0.865195C7.29434 0.86121 7.21556 0.872792 7.14128 0.89928C7.067 0.925768 6.99867 0.966641 6.9402 1.01956C6.88173 1.07248 6.83427 1.13641 6.80053 1.20769L0.227152 15.0672C0.0833988 15.3703 0.0509894 15.8648 0.712365 16.5C1.07279 16.8458 1.59367 17.1891 2.17935 17.4669C2.56676 17.6503 3.89599 18.2271 4.73071 17.9295C5.04777 17.8164 5.20024 17.6117 5.27231 17.4598L11.8455 3.60069C11.9143 3.45657 11.9227 3.29162 11.8692 3.14169ZM9.40073 1.06171L12 -3.53583C12.1679 -3.5229 11.9788 -3.61237 12.1407 -3.53583C12.0244 -3.6577 12.3023 -3.45919 12.1407 -3.53583L10.3136 1.49468C10.217 1.69834 10.1766 1.92413 10.1965 2.14867L10.1853 2.14831L8.97485 1.57395L8.96783 1.56643C9.15454 1.43978 9.304 1.26553 9.40073 1.06171ZM1.05469 15.0672L7.55469 2.00023L8.97485 2.66572L3.5 14.0002C3 15.0002 2.29275 14.9862 2 15.0672C1.57565 15.1838 1.05469 15.0672 1.05469 15.0672ZM4.55469 16.5002C4.55469 16.5002 4.17835 16.4039 4 16.0002C3.87753 15.7233 3.62042 15.3011 4 14.5002C5.40794 11.5296 9.30349 2.80093 9.30349 2.80093L10.7208 3.50023L4.55469 16.5002Z" fill="black"/>
</g>
<defs>
<clipPath id="clip0_171_1236">
<rect width="20" height="20" fill="white"/>
</clipPath>
</defs>
</svg>
