<svg width="20" height="20" viewBox="0 0 20 20" fill="none" xmlns="http://www.w3.org/2000/svg">
<g clip-path="url(#clip0_173_1364)">
<path d="M17.8711 11.5483C18.7742 8.53753 22.7197 0 22.7197 0L20.5 0.5L12.4562 16.2969C12.3846 16.4582 12.2791 16.6006 12.147 16.7139C12.015 16.8272 11.8598 16.9086 11.6925 16.9523C11.4042 17.0282 11.0975 16.996 10.8265 16.8616C10.2015 16.5545 9.91506 15.8 10.1882 15.1806C10.5334 14.3997 10.176 13.4518 9.39174 13.0669C9.053 12.8997 8.66979 12.8601 8.30979 12.9552C8.09844 13.0107 7.90236 13.1138 7.73549 13.2569C7.56862 13.4001 7.43506 13.58 7.34432 13.7836C6.38098 15.9641 7.38098 18.6154 9.57439 19.694C11 20 12.0038 19.9609 13 19.694C13.9188 19.4478 14.3083 19.2053 14.8589 18.4423L14.8655 18.4371C15.5012 17.8904 17.6444 12.2047 17.8696 11.5515L17.8711 11.5483ZM15 15.4998C15.4798 13.7561 15 13.9998 14.5 13.4998L21 1V1.5C20.369 2.77293 17.8696 7.72754 17 9.49982C16.9542 10.1275 17.4413 10.1859 17.5 10.4998C16.8889 12.1417 15.6471 14.0659 15 15.4998Z" fill="black"/>
<path fill-rule="evenodd" clip-rule="evenodd" d="M11 7.49982C11 10.5374 8.53757 12.9998 5.5 12.9998C2.46243 12.9998 0 10.5374 0 7.49982C0 4.46226 2.46243 1.99982 5.5 1.99982C8.53757 1.99982 11 4.46226 11 7.49982ZM9.625 7.49982C9.625 9.778 7.77817 11.6248 5.5 11.6248C3.22183 11.6248 1.375 9.778 1.375 7.49982V7.49982C1.375 6.70609 1.49446 5.88747 1.82915 5.16775C1.87917 5.06018 1.9359 4.9539 1.99944 4.84956C2.43909 4.12761 3.11089 3.6527 3.80736 3.49402C4.35667 3.36886 4.93661 3.37482 5.5 3.37482V3.37482C7.77817 3.37482 9.625 5.22165 9.625 7.49982Z" fill="black"/>
</g>
<defs>
<clipPath id="clip0_173_1364">
<rect width="20" height="20" fill="white"/>
</clipPath>
</defs>
</svg>
