<svg width="30" height="30" viewBox="0 0 30 30" fill="none" xmlns="http://www.w3.org/2000/svg">
<g clip-path="url(#clip0_187_639)">
<path d="M26.8067 17.3224C28.1613 12.8063 34.0796 0 34.0796 0L30.75 0.75L18.6843 24.4454C18.577 24.6873 18.4186 24.9008 18.2205 25.0708C18.0225 25.2407 17.7897 25.3629 17.5388 25.4285C17.1064 25.5423 16.6462 25.4941 16.2398 25.2924C15.3022 24.8317 14.8726 23.6999 15.2822 22.7708C15.8 21.5995 15.264 20.1776 14.0876 19.6004C13.5795 19.3495 13.0047 19.2902 12.4647 19.4328C12.1477 19.5161 11.8535 19.6706 11.6032 19.8854C11.3529 20.1002 11.1526 20.3699 11.0165 20.6755C9.57146 23.9461 11.0715 27.9231 14.3616 29.541C16.5 30 18.0057 29.9414 19.5 29.541C20.8783 29.1717 21.4624 28.8079 22.2884 27.6635L22.2983 27.6557C23.2518 26.8356 26.4666 18.3071 26.8045 17.3272L26.8067 17.3224ZM22.5 23.2497C23.2197 20.6342 22.5 20.9997 21.75 20.2497L31.5 1.5V2.25C30.5535 4.1594 26.8045 11.5913 25.5 14.2497C25.4313 15.1913 26.1619 15.2788 26.25 15.7497C25.3334 18.2126 23.4706 21.0988 22.5 23.2497Z" fill="#2F3D50"/>
<path fill-rule="evenodd" clip-rule="evenodd" d="M16.5 11.2497C16.5 15.8061 12.8063 19.4997 8.25 19.4997C3.69365 19.4997 0 15.8061 0 11.2497C0 6.69339 3.69365 2.99974 8.25 2.99974C12.8063 2.99974 16.5 6.69339 16.5 11.2497ZM14.4375 11.2497C14.4375 14.667 11.6673 17.4372 8.25 17.4372C4.83274 17.4372 2.0625 14.667 2.0625 11.2497V11.2497C2.0625 10.0591 2.24169 8.8312 2.74372 7.75162C2.81875 7.59027 2.90385 7.43085 2.99916 7.27434C3.65863 6.19141 4.66633 5.47905 5.71104 5.24103C6.535 5.05329 7.40492 5.06224 8.25 5.06224V5.06224C11.6673 5.06224 14.4375 7.83247 14.4375 11.2497Z" fill="#2F3D50"/>
</g>
<defs>
<clipPath id="clip0_187_639">
<rect width="30" height="30" fill="white"/>
</clipPath>
</defs>
</svg>
