<svg width="20" height="20" viewBox="0 0 20 20" fill="none" xmlns="http://www.w3.org/2000/svg">
<path d="M15.6407 4.34829C14.9009 3.60261 14.0205 3.0111 13.0505 2.60801C12.0805 2.20493 11.0402 1.99827 9.9898 2.00001C8.93917 1.99837 7.89864 2.20506 6.9284 2.60814C5.95816 3.01121 5.07748 3.60267 4.33729 4.34829C1.2209 7.46389 1.2209 12.5353 4.33729 15.6517C5.07749 16.3975 5.95829 16.9891 6.92869 17.3922C7.89909 17.7953 8.93981 18.0019 9.9906 18C11.0409 18.0018 12.0812 17.7953 13.0512 17.3924C14.0212 16.9894 14.9016 16.398 15.6415 15.6525C18.7579 12.5369 18.7579 7.46548 15.6407 4.34829ZM10.1337 3.60576H9.84673C9.89548 3.60496 9.94184 3.59857 9.9906 3.59857C10.0394 3.59857 10.0849 3.60496 10.1337 3.60576ZM14.9789 13.9964H13.1861L12.1806 16.0074C11.4792 16.2665 10.7376 16.3999 9.9898 16.4014C9.24065 16.4001 8.49763 16.2664 7.79498 16.0066L6.79188 14.0044H5.00549C4.34643 13.185 3.90074 12.2151 3.70826 11.1813L5.19332 9.20072L4.2214 7.25607C4.53152 6.59634 4.95305 5.995 5.46747 5.47848C6.18745 4.75597 7.06994 4.21634 8.04115 3.90469L9.989 5.20432L11.9376 3.90549C12.9086 4.21736 13.7909 4.75666 14.5113 5.47848C15.0252 5.99439 15.4464 6.59488 15.7566 7.25367L14.7847 9.20072L16.2697 11.1813C16.0781 12.2118 15.6347 13.1788 14.9789 13.9964Z" fill="black"/>
<path d="M7.08333 9.50748L8.33333 12.8408H11.6667L12.9167 9.50748L10 7.42414L7.08333 9.50748Z" fill="black"/>
</svg>
