<svg width="30" height="30" viewBox="0 0 30 30" fill="none" xmlns="http://www.w3.org/2000/svg">
<path d="M23.4611 6.52244C22.3513 5.40392 21.0308 4.51665 19.5758 3.91202C18.1208 3.30739 16.5603 2.9974 14.9847 3.00002C13.4087 2.99755 11.848 3.30759 10.3926 3.91221C8.93724 4.51682 7.61622 5.40401 6.50594 6.52244C1.83135 11.1958 1.83135 18.803 6.50594 23.4776C7.61624 24.5963 8.93744 25.4837 10.393 26.0883C11.8486 26.6929 13.4097 27.0028 14.9859 27C16.5614 27.0027 18.1218 26.693 19.5768 26.0885C21.0318 25.4841 22.3524 24.5971 23.4623 23.4788C28.1368 18.8054 28.1368 11.1982 23.4611 6.52244ZM22.4683 20.9946L20.5 21L20 20V21.5L18.2709 24.0111C17.2188 24.3998 16.1063 24.5999 14.9847 24.6021C13.861 24.6001 12.7464 24.3996 11.6925 24.0099V21.5L12.5 20L11 20.9946L7.50824 21.0066C6.51965 19.7775 5.78871 18.5506 5.5 17L8.5 14H11L8.5 13L6.5 10C7 9.5 7.42958 8.9925 8.20121 8.21771C9.28118 7.13396 10.6049 6.32451 12.0617 5.85704L16 8L16.5 9V8L18.5 6C19.9564 6.4678 20.6864 7.13498 21.767 8.21771C22.5378 8.99158 23.1696 9.89233 23.6349 10.8805L23 13.5L22.177 13.8011L23 14L24.4046 16.772C24.1172 18.3176 23.452 19.7682 22.4683 20.9946Z" fill="#2F3D50"/>
<path d="M12.4273 13.8011L14.3023 18.8011H19.3023L21.1773 13.8011L16.8023 10.6761L12.4273 13.8011Z" fill="#2F3D50"/>
</svg>
