<svg width="20" height="20" viewBox="0 0 20 20" fill="none" xmlns="http://www.w3.org/2000/svg">
<g clip-path="url(#clip0_171_1253)">
<path d="M17.3437 16.0185L24.7865 -4.16113L24.0062 -4.00113L19.3302 8.66634L18.3353 8.32597C19.3727 5.93762 22.37 -1.93079 23.086 -3.81245L22.302 -3.65171C22.302 -3.65171 17.9984 7.68343 17.4081 8.71338C16.2868 10.6696 15.0837 11.9799 13.9539 12.8528C12.6068 13.8931 11.3639 14.3102 10.4919 14.4299C7.99015 14.7755 4.89863 14.8148 1.8952 14.772C1.0104 14.7722 0.898805 19.2038 1.87796 19.2936C6.65958 19.7319 11.3474 18.7896 14.2068 17.9751C14.8582 17.7919 15.5035 17.5854 16.1397 17.3564C16.9031 17.0774 17.3408 16.0294 17.3437 16.0185ZM5.01179 18.6748L4.85963 15.6138C5.25179 15.6074 5.62509 15.5981 5.99005 15.587L5.79073 18.6357C5.53078 18.6496 5.26848 18.6679 5.01179 18.6748ZM7.99756 18.4465C7.49384 18.5091 6.98879 18.5597 6.48288 18.5983L6.68099 15.5619C7.00661 15.5485 7.31957 15.5327 7.62391 15.5138L7.99756 18.4465ZM9.67134 18.1956C9.34421 18.2515 9.01635 18.3028 8.68786 18.3498L8.32131 15.4677C8.7948 15.4328 9.26764 15.3883 9.73952 15.3343L9.67134 18.1956ZM10.7986 17.9887C10.6538 18.0184 10.5116 18.0399 10.367 18.0678L10.4346 15.2451C10.4947 15.2364 10.5579 15.2293 10.6168 15.2199C10.7219 15.2046 10.8318 15.1852 10.9459 15.1618C11.2363 15.1023 11.5856 15.0055 11.9738 14.8609L11.6164 17.8058C11.3449 17.8682 11.0732 17.9324 10.7986 17.9887ZM13.2607 17.3951C12.9494 17.4806 12.6368 17.5617 12.3232 17.6385L12.698 14.5456C12.8334 14.4793 12.9672 14.4169 13.1093 14.338L13.2607 17.3951Z" fill="black"/>
<path d="M11.9915 2.75828C12.0053 2.67361 12.0023 2.58706 11.9826 2.50356C11.963 2.42006 11.9271 2.34126 11.8771 2.27164C11.827 2.20203 11.7637 2.14298 11.6909 2.09786C11.618 2.05274 11.537 2.02244 11.4524 2.00869C11.0898 1.94862 10.7655 2.21241 10.7012 2.56413L10.6855 2.64249C10.6621 2.75 10.6357 2.85684 10.6064 2.96287C10.529 3.24408 10.3994 3.65065 10.1916 4.13818C9.62898 5.44372 8.82274 6.62979 7.81615 7.63278C6.45367 8.98536 4.79341 9.99918 2.96867 10.5928C2.8259 10.6381 2.68178 10.679 2.53653 10.7156L2.5174 10.7199H2.51392C2.43022 10.7381 2.35092 10.7735 2.28054 10.8223C2.21016 10.8712 2.15008 10.9335 2.10373 11.0056C2.05739 11.0777 2.02568 11.1582 2.01043 11.2426C1.99517 11.327 1.99667 11.4136 2.01483 11.4974C2.1383 12.0702 2.78956 11.9971 2.78956 11.9971H2.79216L2.79564 11.9962L2.80521 11.9936L2.83738 11.9858L2.95215 11.9571C3.04954 11.9318 3.18692 11.8935 3.36082 11.8387C5.38571 11.1816 7.22791 10.057 8.73869 8.55562C9.86239 7.43476 10.7622 6.10951 11.3898 4.65097C11.6237 4.10336 11.7724 3.6402 11.8628 3.30937C11.9086 3.14313 11.9483 2.97528 11.9819 2.80616L11.988 2.77395L11.9898 2.76437V2.75915L11.9915 2.75828Z" fill="black"/>
<path d="M1.32141 7.91974C0.880305 9.14375 0.82162 10.4174 1.60387 11.2081L1.75478 11.3615C2.40239 12.017 3.05223 12.6703 3.70429 13.3214C4.52975 14.1468 5.83566 14.1597 7.11512 13.747C8.42167 13.3246 9.85591 12.4179 11.1302 11.1436C12.4045 9.86925 13.3112 8.43501 13.7337 7.12846C14.1464 5.849 14.1335 4.54309 13.308 3.71763C12.6847 3.09331 12.063 2.46733 11.443 1.8397L11.2095 1.60367L11.2083 1.60496C10.4183 0.822063 9.14395 0.880103 7.9193 1.32121C6.65209 1.77844 5.24365 2.70321 3.97321 3.97365C2.70277 5.24409 1.77799 6.65253 1.32141 7.91974ZM2.44223 8.4101C2.84142 7.30475 3.77073 6.16308 4.96314 4.97067C6.15619 3.77762 7.52463 2.73782 8 2.50014C9 2.00014 10 2.50014 10 2.50014L10.5 3.00014C11.1218 3.62792 11.8767 4.37382 12.5 5.00014C12.9353 5.43479 12.697 5.96766 12.3217 7.12846C11.956 8.26154 11.1892 9.3116 10 10.5001C8.81146 11.6893 8.13243 12.1345 7 12.5001C5.83919 12.8755 5.63246 12.8164 5 12.5001C4 12.0001 3.66008 11.5131 3.29378 11.1436L2.65909 10.5597L2.44223 10.3135C2.07336 9.94465 2.0295 9.55478 2.44223 8.4101Z" fill="black"/>
</g>
<defs>
<clipPath id="clip0_171_1253">
<rect width="20" height="20" fill="white"/>
</clipPath>
</defs>
</svg>
