<svg width="30" height="30" viewBox="0 0 30 30" fill="none" xmlns="http://www.w3.org/2000/svg">
<g clip-path="url(#clip0_187_631)">
<path d="M26.0155 24.0278L37.1798 -6.2417L36.0092 -6.00169L28.9953 12.9995L27.5029 12.489C29.059 8.90643 33.5551 -2.89618 34.629 -5.71868L33.453 -5.47757C33.453 -5.47757 26.9976 11.5252 26.1121 13.0701C24.4302 16.0045 22.6255 17.9699 20.9308 19.2792C18.9102 20.8396 17.0459 21.4654 15.7378 21.6448C11.9852 22.1633 7.34795 22.2223 2.8428 22.1579C1.51559 22.1583 1.34821 28.8057 2.81694 28.9404C9.98937 29.5979 17.021 28.1844 21.3103 26.9626C22.2873 26.6879 23.2553 26.3782 24.2095 26.0345C25.3547 25.6161 26.0112 24.0441 26.0155 24.0278ZM7.51769 28.0122L7.28944 23.4207C7.87768 23.4111 9.45256 23.2875 10 23.2707L8.6861 27.9536C8.29617 27.9743 7.90272 28.0019 7.51769 28.0122ZM11.9963 27.6697C11.2408 27.7637 10.4832 27.8396 9.72433 27.8974L10.5927 23.2707C11.0811 23.2506 10.9793 23.2991 11.4359 23.2707L11.9963 27.6697ZM14.507 27.2935C14.0163 27.3772 13.5245 27.4543 13.0318 27.5246L12.482 23.2015C13.1922 23.1492 13.9015 23.0825 14.6093 23.0014L14.507 27.2935ZM16.1979 26.9831C15.9807 27.0276 15.7674 27.0599 15.5505 27.1017L15.652 22.8677C15.742 22.8546 15.8368 22.8439 15.9253 22.8298C16.0829 22.8069 16.2477 22.7778 16.4189 22.7427C16.8545 22.6534 17.3784 22.5083 17.9607 22.2914L17.4246 26.7087C17.0173 26.8023 16.6099 26.8986 16.1979 26.9831ZM19.891 26.0927C19.424 26.2209 18.9552 26.3426 18.4847 26.4577L19.047 21.8185C19.25 21.719 19.4508 21.6254 19.664 21.507L19.891 26.0927Z" fill="#2F3D50"/>
<path d="M17.9872 4.13742C18.0079 4.01042 18.0034 3.88059 17.974 3.75534C17.9445 3.63009 17.8907 3.51188 17.8156 3.40746C17.7405 3.30305 17.6456 3.21447 17.5363 3.14679C17.427 3.07911 17.3055 3.03366 17.1786 3.01304C16.6347 2.92293 16.1483 3.31862 16.0517 3.8462L16.0283 3.96373C15.9932 4.125 15.9536 4.28526 15.9096 4.44431C15.7935 4.86611 15.5992 5.47597 15.2874 6.20728C14.4435 8.16558 13.2341 9.94468 11.7242 11.4492C9.68051 13.478 7.19011 14.9988 4.45301 15.8892C4.23885 15.9572 4.02268 16.0186 3.8048 16.0734L3.7761 16.0799H3.77089C3.64534 16.1072 3.52638 16.1602 3.42081 16.2335C3.31524 16.3068 3.22512 16.4002 3.1556 16.5084C3.08608 16.6166 3.03852 16.7374 3.01564 16.8639C2.99276 16.9905 2.995 17.1204 3.02224 17.2461C3.20745 18.1054 4.18433 17.9957 4.18433 17.9957H4.18825L4.19346 17.9944L4.20781 17.9904L4.25607 17.9787L4.42823 17.9356C4.57431 17.8977 4.78038 17.8403 5.04123 17.758C8.07857 16.7724 10.8419 15.0855 13.108 12.8334C14.7936 11.1521 16.1433 9.16426 17.0847 6.97645C17.4355 6.15504 17.6586 5.4603 17.7942 4.96406C17.8628 4.71469 17.9225 4.46292 17.9729 4.20924L17.982 4.16092L17.9846 4.14656V4.13872L17.9872 4.13742Z" fill="#2F3D50"/>
<path d="M1.98212 11.8796C1.32046 13.7156 1.23243 15.6261 2.40581 16.8121L2.63217 17.0423C3.60359 18.0255 4.57835 19.0054 5.55643 19.982C6.79462 21.2202 8.75348 21.2396 10.6727 20.6205C12.6325 19.9869 14.7839 18.6268 16.6953 16.7153C18.6068 14.8039 19.9669 12.6525 20.6005 10.6927C21.2196 8.77349 21.2002 6.81464 19.962 5.57644C19.027 4.63996 18.0945 3.701 17.1645 2.75955L16.8143 2.40551L16.8124 2.40744C15.6274 1.23309 13.7159 1.32016 11.879 1.98181C9.97813 2.66766 7.86547 4.05482 5.95981 5.96048C4.05416 7.86613 2.66699 9.9788 1.98212 11.8796ZM3.66335 12.6151C4.26213 10.9571 5.6561 9.24462 7.44471 7.45601C9.23428 5.66643 11.287 4.10673 12 3.7502C13.5 3.0002 15 3.7502 15 3.7502L15.75 4.5002C16.6827 5.44189 17.8151 6.56074 18.75 7.5002C19.403 8.15219 19.0455 8.95148 18.4825 10.6927C17.934 12.3923 16.7838 13.9674 15 15.7502C13.2172 17.534 12.1986 18.2017 10.5 18.7502C8.75879 19.3132 8.44868 19.2245 7.5 18.7502C6 18.0002 5.49012 17.2696 4.94067 16.7153L3.98863 15.8396L3.66335 15.4703C3.11003 14.917 3.04425 14.3322 3.66335 12.6151Z" fill="#2F3D50"/>
</g>
<defs>
<clipPath id="clip0_187_631">
<rect width="30" height="30" fill="white"/>
</clipPath>
</defs>
</svg>
