<svg width="20" height="19" viewBox="0 0 20 19" fill="none" xmlns="http://www.w3.org/2000/svg">
<path fill-rule="evenodd" clip-rule="evenodd" d="M10 18C14.4183 18 18 14.4183 18 10C18 5.58172 14.4183 2 10 2C5.58172 2 2 5.58172 2 10C2 14.4183 5.58172 18 10 18ZM10 16.4516C13.5631 16.4516 16.4516 13.5631 16.4516 10C16.4516 6.43687 13.5631 3.54839 10 3.54839C6.43687 3.54839 3.54839 6.43687 3.54839 10C3.54839 13.5631 6.43687 16.4516 10 16.4516Z" fill="black"/>
<path d="M14.5 3.5H13.5L11.5 6.5L10.2548 8.05645C9.75461 8.68174 9.16088 9.22608 8.4946 9.67027C7.17078 10.5528 5.7352 11.2549 4.2258 11.7581L3.5 12L4 13L4.42162 12.8795C6.45358 12.299 8.34981 11.3201 10 10L10.4345 9.56546C11.8026 8.19743 12.9411 6.61781 13.8063 4.88738L14.5 3.5Z" fill="black"/>
<path d="M16 6L15.5 5.5C14.8475 7.78393 13.6186 9.88141 11.939 11.561C11.6467 11.8533 11.3306 12.1271 10.9999 12.3751C10.0089 13.1184 8.94263 13.7787 7.83462 14.3327L5.5 15.5L6.5 16L7.5 15.5L10.5622 13.9689C12.4692 13.0154 14.0154 11.4692 14.9689 9.56223C15.3214 8.85722 15.5783 8.10837 15.7329 7.33545L16 6Z" fill="black"/>
<path d="M15.5 4.5L15 4L14.3305 5.33905C13.7787 6.44265 13.1011 7.47871 12.3112 8.42658L11.4726 9.43294C11.1582 9.8102 10.8102 10.1582 10.4329 10.4726C8.82247 11.8146 6.99755 12.8759 5.03467 13.612L4 14L4.5 15L6.78552 14.1429C7.92474 13.7157 9.01119 13.1592 10.0235 12.4843C11.0027 11.8315 11.8826 11.0409 12.636 10.1368L12.7181 10.0383C13.5666 9.02002 14.2377 7.86618 14.7031 6.62513L15.5 4.5Z" fill="black"/>
</svg>
