<svg width="30" height="30" viewBox="0 0 30 30" fill="none" xmlns="http://www.w3.org/2000/svg">
<path fill-rule="evenodd" clip-rule="evenodd" d="M15 28.4209C21.6274 28.4209 27 22.7655 27 15.7893C27 8.81307 21.6274 3.15771 15 3.15771C8.37258 3.15771 3 8.81307 3 15.7893C3 22.7655 8.37258 28.4209 15 28.4209ZM15 25.9761C20.3447 25.9761 24.6774 21.4153 24.6774 15.7893C24.6774 10.1633 20.3447 5.60254 15 5.60254C9.65531 5.60254 5.32258 10.1633 5.32258 15.7893C5.32258 21.4153 9.65531 25.9761 15 25.9761Z" fill="#2F3D50"/>
<path d="M21.75 5.52614H20.25L17.25 10.263L15.3823 12.7205C14.6319 13.7078 13.7413 14.5673 12.7419 15.2687C10.7562 16.6622 8.60279 17.7708 6.3387 18.5652L5.25 18.9472L6 20.5261L6.63243 20.3359C9.68037 19.4193 12.5247 17.8737 15 15.7893L15.6518 15.1032C17.7039 12.9431 19.4116 10.449 20.7095 7.71674L21.75 5.52614Z" fill="#2F3D50"/>
<path d="M24 9.4735V9.4735C23.671 9.12721 23.0868 9.27328 22.94 9.72781C21.9061 12.9284 20.1828 15.86 17.9085 18.254C17.47 18.7156 16.9959 19.1478 16.4998 19.5394C15.0133 20.713 13.4139 21.7556 11.7519 22.6304L8.25 24.4735L9.75 25.263L15.8433 22.056C18.7038 20.5505 21.0231 18.109 22.4533 15.0981C22.9821 13.9849 23.3675 12.8025 23.5994 11.5821L24 9.4735Z" fill="#2F3D50"/>
<path d="M23.25 7.10508L22.5 6.31561L21.4957 8.4299C20.668 10.1724 19.6516 11.8083 18.4668 13.305L17.2088 14.8939C16.7372 15.4896 16.2153 16.039 15.6494 16.5354C13.2337 18.6545 10.4963 20.3302 7.552 21.4925L6 22.1051L6.75 23.684L10.1783 22.3308C11.8871 21.6562 13.5168 20.7775 15.0353 19.7119C16.5041 18.6812 17.8239 17.4328 18.954 16.0053L19.0772 15.8497C20.35 14.242 21.3565 12.4201 22.0546 10.4605L23.25 7.10508Z" fill="#2F3D50"/>
</svg>
