<svg width="20" height="20" viewBox="0 0 20 20" fill="none" xmlns="http://www.w3.org/2000/svg">
<path d="M17.2307 2.77827C17.2307 2.77827 9.68642 0.0266442 4.88239 4.87123C0.795981 8.99223 2.02275 16.5815 2.78364 17.3489C3.74667 17.8345 11.0121 19.2956 15.0983 15.1745C19.1846 11.0533 17.9916 3.54565 17.2307 2.77827ZM6.18604 16.8633C5.08806 16.8633 3.75333 16.6225 3.5 16.5C3.25333 16.1225 3.13989 14.5513 3.2651 12.9777L7.11766 16.8633C6.61683 16.9022 6.5135 16.8633 6.18604 16.8633ZM13.9849 14.0755C12.3741 15.8612 10.541 16.1212 9 16.5L3.5 11C3.90452 9.3681 4.79655 7.30504 6.039 6.06169C7.31035 4.77948 9.46861 3.87883 11 3.5L16.5 9C16.0955 10.6222 15.2081 12.8321 13.9849 14.0755ZM16.7106 7.23704L12.8965 3.26414C13.3973 3.21557 13.773 3.26414 14.1101 3.26414C15.2081 3.26414 16.0088 3.39315 16.5 3.5C16.6734 4.26738 16.8358 5.644 16.7106 7.23704Z" fill="black"/>
<path d="M7.32444 12.6765C7.18969 12.5406 7.17781 12.3242 7.29685 12.1742L9.01403 10.0094L12.1221 7.32255C12.2705 7.19429 12.4917 7.20286 12.6299 7.34222C12.7647 7.47812 12.7765 7.69447 12.6575 7.84454L10.9403 10.0094L7.83226 12.6962C7.68389 12.8244 7.46262 12.8159 7.32444 12.6765Z" fill="black"/>
</svg>
