<svg width="30" height="30" viewBox="0 0 30 30" fill="none" xmlns="http://www.w3.org/2000/svg">
<path d="M25.8461 4.1674C25.8461 4.1674 14.5296 0.0399663 7.32358 7.30684C1.19397 13.4884 3.03413 24.8722 4.17545 26.0233C5.62001 26.7518 16.5181 28.9435 22.6475 22.7617C28.7769 16.5799 26.9874 5.31847 25.8461 4.1674ZM9.27905 25.295C7.63208 25.295 5.62999 24.9338 5.25 24.75C4.87999 24.1838 4.70984 21.827 4.89765 19.4666L10.6765 25.295C9.92525 25.3533 9.77026 25.295 9.27905 25.295ZM20.9774 21.1132C18.5611 23.7918 15.8115 24.1817 13.5 24.75L5.25 16.5C5.85678 14.0521 7.19483 10.9576 9.0585 9.09253C10.9655 7.16922 14.2029 5.81825 16.5 5.25L24.75 13.5C24.1432 15.9333 22.8122 19.2482 20.9774 21.1132ZM25.0659 10.8556L19.3448 4.89621C20.096 4.82336 20.6595 4.89621 21.1652 4.89621C22.8122 4.89621 24.0132 5.08972 24.75 5.25C25.01 6.40107 25.2537 8.466 25.0659 10.8556Z" fill="#2F3D50"/>
<path d="M10.9867 19.0147C10.7845 18.8109 10.7667 18.4864 10.9453 18.2613L13.521 15.014L18.1831 10.9838C18.4057 10.7914 18.7376 10.8043 18.9449 11.0133C19.147 11.2172 19.1648 11.5417 18.9862 11.7668L16.4105 15.014L11.7484 19.0442C11.5258 19.2366 11.1939 19.2238 10.9867 19.0147Z" fill="#2F3D50"/>
</svg>
