<svg width="20" height="19" viewBox="0 0 20 19" fill="none" xmlns="http://www.w3.org/2000/svg">
<path fill-rule="evenodd" clip-rule="evenodd" d="M10 18C14.4183 18 18 14.4183 18 10C18 5.58172 14.4183 2 10 2C5.58172 2 2 5.58172 2 10C2 14.4183 5.58172 18 10 18ZM10 16.4516C13.5631 16.4516 16.4516 13.5631 16.4516 10C16.4516 6.43687 13.5631 3.54839 10 3.54839C6.43687 3.54839 3.54839 6.43687 3.54839 10C3.54839 13.5631 6.43687 16.4516 10 16.4516Z" fill="black"/>
<path d="M8.824 11.85C8.81467 11.8033 8.81 11.7333 8.81 11.64C8.81 11.2667 8.908 10.912 9.104 10.576C9.3 10.2307 9.55667 9.92733 9.874 9.666C10.0887 9.48867 10.2893 9.302 10.476 9.106C10.6627 8.90067 10.756 8.68133 10.756 8.448C10.756 8.168 10.658 7.958 10.462 7.818C10.266 7.66867 10.0187 7.594 9.72 7.594C9.42133 7.594 9.132 7.64067 8.852 7.734C8.572 7.818 8.26867 7.93933 7.942 8.098L7.466 6.782C7.79267 6.57667 8.17533 6.418 8.614 6.306C9.05267 6.194 9.48667 6.138 9.916 6.138C10.448 6.138 10.8867 6.21267 11.232 6.362C11.5773 6.502 11.848 6.67933 12.044 6.894C12.24 7.10867 12.3753 7.34667 12.45 7.608C12.534 7.86 12.576 8.10267 12.576 8.336C12.576 8.60667 12.52 8.854 12.408 9.078C12.3053 9.302 12.17 9.512 12.002 9.708C11.8433 9.904 11.6707 10.0907 11.484 10.268C11.2973 10.436 11.12 10.604 10.952 10.772C10.7933 10.94 10.658 11.1127 10.546 11.29C10.4433 11.4673 10.392 11.654 10.392 11.85H8.824ZM10.882 14.006C10.882 14.37 10.7607 14.6547 10.518 14.86C10.2847 15.0653 10.0187 15.168 9.72 15.168C9.57067 15.168 9.426 15.14 9.286 15.084C9.146 15.0373 9.02 14.9627 8.908 14.86C8.796 14.7573 8.70733 14.636 8.642 14.496C8.57667 14.356 8.544 14.1927 8.544 14.006C8.544 13.8287 8.57667 13.67 8.642 13.53C8.70733 13.3807 8.796 13.2593 8.908 13.166C9.02 13.0633 9.146 12.9887 9.286 12.942C9.426 12.886 9.57067 12.858 9.72 12.858C9.86933 12.858 10.014 12.886 10.154 12.942C10.294 12.9887 10.4153 13.0633 10.518 13.166C10.63 13.2593 10.7187 13.3807 10.784 13.53C10.8493 13.67 10.882 13.8287 10.882 14.006Z" fill="black"/>
</svg>
