<svg width="30" height="30" viewBox="0 0 30 30" fill="none" xmlns="http://www.w3.org/2000/svg">
<path fill-rule="evenodd" clip-rule="evenodd" d="M15 28.4209C21.6274 28.4209 27 22.7655 27 15.7893C27 8.81307 21.6274 3.15771 15 3.15771C8.37258 3.15771 3 8.81307 3 15.7893C3 22.7655 8.37258 28.4209 15 28.4209ZM15 25.9761C20.3447 25.9761 24.6774 21.4153 24.6774 15.7893C24.6774 10.1633 20.3447 5.60254 15 5.60254C9.65531 5.60254 5.32258 10.1633 5.32258 15.7893C5.32258 21.4153 9.65531 25.9761 15 25.9761Z" fill="#2F3D50"/>
<path d="M13.236 18.7103C13.222 18.6367 13.215 18.5261 13.215 18.3788C13.215 17.7893 13.362 17.2293 13.656 16.6988C13.95 16.1535 14.335 15.6746 14.811 15.2619C15.133 14.9819 15.434 14.6872 15.714 14.3777C15.994 14.0535 16.134 13.7072 16.134 13.3388C16.134 12.8967 15.987 12.5651 15.693 12.344C15.399 12.1082 15.028 11.9903 14.58 11.9903C14.132 11.9903 13.698 12.064 13.278 12.2114V12.2114C12.5317 12.4471 11.6855 12.124 11.4312 11.3839L11.199 10.7082C11.689 10.384 12.263 10.1335 12.921 9.95666C13.579 9.77982 14.23 9.6914 14.874 9.6914C15.672 9.6914 16.33 9.80929 16.848 10.0451C17.366 10.2661 17.772 10.5461 18.066 10.8851C18.36 11.224 18.563 11.5998 18.675 12.0125C18.801 12.4103 18.864 12.7935 18.864 13.1619C18.864 13.5893 18.78 13.9798 18.612 14.3335C18.458 14.6872 18.255 15.0188 18.003 15.3282C17.765 15.6377 17.506 15.9325 17.226 16.2125C16.946 16.4777 16.68 16.743 16.428 17.0082C16.19 17.2735 15.987 17.5461 15.819 17.8261C15.665 18.1061 15.588 18.4009 15.588 18.7103H13.236ZM16.323 22.1146C16.323 22.6893 16.141 23.1388 15.777 23.463C15.427 23.7872 15.028 23.9493 14.58 23.9493C14.356 23.9493 14.139 23.9051 13.929 23.8167C13.719 23.743 13.53 23.6251 13.362 23.463C13.194 23.3009 13.061 23.1093 12.963 22.8882C12.865 22.6672 12.816 22.4093 12.816 22.1146C12.816 21.8346 12.865 21.584 12.963 21.363C13.061 21.1272 13.194 20.9356 13.362 20.7882C13.53 20.6261 13.719 20.5082 13.929 20.4346C14.139 20.3461 14.356 20.3019 14.58 20.3019C14.804 20.3019 15.021 20.3461 15.231 20.4346C15.441 20.5082 15.623 20.6261 15.777 20.7882C15.945 20.9356 16.078 21.1272 16.176 21.363C16.274 21.584 16.323 21.8346 16.323 22.1146Z" fill="#2F3D50"/>
</svg>
