<svg width="20" height="20" viewBox="0 0 20 20" fill="none" xmlns="http://www.w3.org/2000/svg">
<path d="M16.78 5.9244C16.7633 5.89645 16.7446 5.86973 16.724 5.84443C15.6897 4.14207 14.0572 2.88703 12.1462 2.32496C10.2351 1.7629 8.18312 1.93427 6.39179 2.80554H6.33582C5.09992 3.44199 4.05127 4.38961 3.2933 5.55494C2.53534 6.72027 2.09423 8.06305 2.0135 9.45085C1.93277 10.8387 2.21519 12.2235 2.83292 13.4689C3.45065 14.7142 4.38234 15.7771 5.53611 16.5525L5.80001 16.7125L5.87998 16.7684C7.08805 17.5345 8.4806 17.96 9.91051 18H10.0785C11.475 17.9692 12.8391 17.5732 14.035 16.8513C15.2309 16.1294 16.2169 15.1068 16.8947 13.8854C17.5726 12.664 17.9187 11.2864 17.8985 9.88963C17.8784 8.49288 17.4928 7.12577 16.78 5.9244ZM15.5085 6.85207C15.7221 7.22201 15.8963 7.61335 16.0283 8.01964C15.2532 7.76753 14.4442 7.63538 13.6292 7.62778C13.5473 7.61182 13.4631 7.61182 13.3812 7.62778C12.3987 7.64081 11.4275 7.83886 10.5183 8.21157C9.96415 7.8643 9.46768 7.43259 9.04683 6.93204C10.0242 6.35887 11.1341 6.05008 12.2671 6.03606C13.4 6.02203 14.5172 6.30326 15.5085 6.85207ZM9.91051 3.60525C11.0341 3.59945 12.1387 3.89493 13.1093 4.46094C12.8443 4.42508 12.5771 4.40638 12.3096 4.40496C10.8419 4.40777 9.40317 4.81447 8.15115 5.58053C7.91495 5.08738 7.74294 4.56599 7.63934 4.02909C8.36401 3.74976 9.13387 3.60609 9.91051 3.60525ZM5.11226 5.77246C5.43139 5.41776 5.78801 5.09868 6.17587 4.82081C6.44289 5.8403 6.91077 6.79622 7.55207 7.63252C8.19338 8.46882 8.99519 9.16867 9.91051 9.69103C9.85347 10.4909 9.64449 11.2726 9.29474 11.9942C8.06957 11.542 7.01213 10.7257 6.26447 9.65497C5.51681 8.58423 5.11473 7.31032 5.11226 6.00437V5.77246ZM3.51284 10.0029C3.51427 9.36036 3.6113 8.7216 3.80074 8.10761C4.1169 9.26865 4.69099 10.3434 5.48024 11.2517C6.26949 12.16 7.25354 12.8785 8.35908 13.3537C7.72259 14.0995 6.92005 14.6857 6.01593 15.0651C5.23918 14.4691 4.60958 13.7027 4.17562 12.8251C3.74166 11.9475 3.51491 10.982 3.51284 10.0029ZM9.79855 16.4006C9.08552 16.3902 8.37955 16.2577 7.71131 16.0087C8.76028 15.3622 9.64457 14.4806 10.2944 13.4337C11.0308 12.2601 11.4496 10.9153 11.5099 9.53109C11.9714 9.37938 12.4492 9.28275 12.9334 9.24319C13.2751 10.6149 13.1528 12.0612 12.5856 13.3561C12.0185 14.651 11.0384 15.7215 9.79855 16.4006ZM13.1733 15.5049C14.1722 14.1407 14.7101 12.4935 14.7088 10.8026C14.7052 10.2982 14.6571 9.7951 14.5648 9.29917C15.1662 9.40545 15.7501 9.5938 16.3002 9.85897V10.0029C16.2994 11.1111 16.0108 12.2 15.4627 13.1631C14.9146 14.1262 14.1257 14.9304 13.1733 15.4969V15.5049Z" fill="black"/>
</svg>
