<svg width="30" height="30" viewBox="0 0 30 30" fill="none" xmlns="http://www.w3.org/2000/svg">
<path d="M25.17 8.88661C25.1449 8.84468 25.1168 8.8046 25.086 8.76665C23.5345 6.21311 21.0858 4.33055 18.2192 3.48745C15.3527 2.64435 12.2747 2.90141 9.58769 4.20831H9.50372C7.64987 5.16298 6.0769 6.58441 4.93995 8.3324C3.803 10.0804 3.14135 12.0946 3.02025 14.1763C2.89915 16.258 3.32279 18.3353 4.24938 20.2033C5.17597 22.0714 6.57351 23.6656 8.30416 24.8288L8.70002 25.0687L8.81997 25.1527C10.6321 26.3017 12.7209 26.94 14.8658 27H15.1177C17.2125 26.9538 19.2587 26.3598 21.0526 25.2769C22.8464 24.1941 24.3253 22.6603 25.3421 20.8282C26.3589 18.996 26.878 16.9296 26.8478 14.8344C26.8176 12.7393 26.2391 10.6887 25.17 8.88661ZM21 8C22 8.5 23.5 10 24.542 13.8648C23.5 12 21.6662 11.4531 20.4437 11.4417C20.3209 11.4177 20.1947 11.4177 20.0719 11.4417C18.5981 11.4612 17.1412 11.7583 15.7774 12.3174C14.9462 11.7965 14.2015 11.1489 13.5702 10.3981C15.0364 9.5383 17.0194 8.69612 18 8.5C20.5 8 20.5 8 21 8ZM14.8658 5.40787C16.5512 5.39917 19.0441 6.65099 20.5 7.5C19.5 7 18 7 17.5 7C15.2983 7 14.1047 7.22171 12.2267 8.37079C11.5 7.5 11.1554 6.80534 11 6C12.087 5.581 13.7008 5.40914 14.8658 5.40787ZM7.5 8.5C8.33161 7.34131 9 7 10 6.5C10 8.17939 10.3662 10.1943 11.3281 11.4488C12.2901 12.7032 13.4928 13.753 14.8658 14.5365C14.7802 15.7364 14.4667 16.9089 13.9421 17.9913C12.1044 17.313 10.5182 16.0886 9.3967 14.4825C8.27521 12.8763 7.50371 10.4589 7.5 8.5ZM5.26927 15.0044C5.27141 14.0405 5.5 11.4488 6.5 9.5C6.5 11 6.26343 13.8648 8.22036 16.8776C9.40423 18.2401 10.8803 19.3178 12.5386 20.0305C11.5839 21.1493 10.3801 22.0285 9.0239 22.5976C7.85877 21.7036 6.91438 20.5541 6.26343 19.2377C5.61249 17.9212 5.27237 16.473 5.26927 15.0044ZM14.6978 24.6009C13 24.6009 12 24.5 10 23C12 22.5 14.4669 21.7209 15.4416 20.1505C16.5462 18.3901 17.1745 16.3729 17.2649 14.2966C17.9571 14.0691 18.6738 13.9241 19.4001 13.8648C19.9126 15.9224 19.7291 18.0918 18.8784 20.0341C18.0277 21.9764 16.5576 23.5823 14.6978 24.6009ZM16 24.6009C19.76 22.5541 22.0651 18.7402 22.0631 16.2039C22.0578 15.4473 21.9856 14.6926 21.8472 13.9488C22.7493 14.1082 23.6251 14.3907 24.4503 14.7885V15.0044C24.4491 16.6666 23.8222 19.0554 23 20.5C22.1778 21.9446 21 22.5 19.76 23.2454L18.8144 23.7703C17.9488 24.2508 16.9878 24.5344 16 24.6009V24.6009Z" fill="#2F3D50"/>
</svg>
