<svg width="30" height="30" viewBox="0 0 30 30" fill="none" xmlns="http://www.w3.org/2000/svg">
    <path
        d="M16.691 18.778L16.061 18.288C16.0747 18.1926 16.0824 18.0964 16.084 18C16.0851 17.9031 16.077 17.8064 16.06 17.711L16.685 17.221C16.7115 17.1984 16.7295 17.1675 16.736 17.1333C16.7426 17.0992 16.7373 17.0638 16.721 17.033L16.131 16.013C16.1132 15.9822 16.085 15.9588 16.0514 15.9469C16.0179 15.935 15.9813 15.9354 15.948 15.948L15.218 16.243C15.0655 16.123 14.8964 16.0257 14.716 15.954L14.604 15.176C14.6 15.1416 14.5834 15.1098 14.5574 15.0869C14.5313 15.064 14.4977 15.0515 14.463 15.052H13.283C13.2479 15.0524 13.214 15.065 13.1872 15.0876C13.1604 15.1102 13.1423 15.1415 13.136 15.176L13.024 15.954C12.8461 16.0298 12.6781 16.1272 12.524 16.244L11.792 15.948C11.7587 15.9362 11.7223 15.9362 11.689 15.948C11.6556 15.9599 11.6274 15.9828 11.609 16.013L11.019 17.033C11.0011 17.0635 10.9948 17.0995 11.0015 17.1343C11.0081 17.1691 11.0271 17.2002 11.055 17.222L11.68 17.712C11.6565 17.9036 11.6565 18.0974 11.68 18.289L11.055 18.779C11.0287 18.8017 11.0109 18.8327 11.0045 18.8669C10.9981 18.9011 11.0036 18.9364 11.02 18.967L11.61 19.987C11.6278 20.0176 11.6558 20.0408 11.6891 20.0527C11.7224 20.0646 11.7589 20.0644 11.792 20.052L12.523 19.757C12.6752 19.8769 12.844 19.9743 13.024 20.046L13.136 20.824C13.1415 20.8591 13.1596 20.8909 13.1868 20.9137C13.214 20.9365 13.2485 20.9487 13.284 20.948H14.463C14.4981 20.9477 14.532 20.9351 14.5588 20.9124C14.5856 20.8898 14.6037 20.8586 14.61 20.824L14.722 20.046C14.8991 19.9716 15.0655 19.8741 15.217 19.756L15.954 20.052C15.9873 20.0638 16.0237 20.0638 16.057 20.052C16.0904 20.0402 16.1186 20.0172 16.137 19.987L16.727 18.967C16.7435 18.9362 16.749 18.9006 16.7424 18.8662C16.7359 18.8318 16.7177 18.8006 16.691 18.778ZM13.873 18.884C13.6982 18.8838 13.5274 18.8318 13.3821 18.7346C13.2369 18.6373 13.1238 18.4992 13.057 18.3376C12.9902 18.1761 12.9729 17.9984 13.0071 17.8269C13.0413 17.6555 13.1256 17.4981 13.2493 17.3746C13.3729 17.2511 13.5305 17.167 13.7019 17.1329C13.8734 17.0989 14.0511 17.1165 14.2125 17.1834C14.374 17.2503 14.512 17.3636 14.6091 17.509C14.7062 17.6544 14.758 17.8252 14.758 18C14.7581 18.1162 14.7353 18.2313 14.6909 18.3387C14.6464 18.4461 14.5812 18.5436 14.499 18.6258C14.4168 18.7079 14.3192 18.773 14.2118 18.8173C14.1043 18.8616 13.9892 18.8843 13.873 18.884Z"
        fill="#000" />
    <path
        d="M18.7574 6.75736C17.6321 5.63214 16.106 5 14.5147 5H9C8.47005 5.00158 7.96227 5.2128 7.58753 5.58753C7.2128 5.96227 7.00158 6.47005 7 7V23C7.00158 23.5299 7.2128 24.0377 7.58753 24.4125C7.96227 24.7872 8.47005 24.9984 9 25H21C21.5299 24.9984 22.0377 24.7872 22.4125 24.4125C22.7872 24.0377 22.9984 23.5299 23 23V13.4853C23 11.894 22.3679 10.3679 21.2426 9.24264L18.7574 6.75736ZM21 23H9V7H15.948V7C16.5981 7.61798 16.8655 8.53792 16.648 9.40811L16 12L18.628 11.343C19.4792 11.1302 20.3796 11.3796 21 12V12V23Z"
        fill="#000" />
</svg>
