<svg width="30" height="30" viewBox="0 0 30 30" fill="none" xmlns="http://www.w3.org/2000/svg">
<path d="M15.0494 4C15.9513 3.99994 16.819 4.345 17.4745 4.96438C18.1301 5.58377 18.5238 6.43053 18.5748 7.33096L18.5802 7.53086H24.284C24.4904 7.53093 24.6891 7.60935 24.84 7.75029C24.9908 7.89123 25.0825 8.08418 25.0966 8.29014C25.1107 8.49611 25.0461 8.69973 24.9158 8.85988C24.7855 9.02003 24.5993 9.12475 24.3948 9.15289L23.4192 9.16049L22.0285 23.3057C21.9589 24.0109 21.6408 24.6684 21.1311 25.1607C20.6215 25.653 19.9534 25.9482 19.2462 25.9935L19.055 26H11.0438C10.3348 26 9.649 25.7479 9.10885 25.2887C8.56869 24.8296 8.20941 24.1933 8.09521 23.4936L8.07022 23.3046L6.67852 9.16049H5.81481C5.61791 9.16049 5.42768 9.08918 5.27929 8.95976C5.13089 8.83034 5.03438 8.65156 5.0076 8.45649L5 8.34568C5.00001 8.14878 5.07132 7.95854 5.20073 7.81015C5.33015 7.66176 5.50893 7.56525 5.704 7.53847L5.81481 7.53086H11.5185C11.5185 6.59442 11.8905 5.69633 12.5527 5.03417C13.2149 4.372 14.1129 4 15.0494 4ZM21.1333 9.05185H8.96543L9.69225 23.1449C9.72273 23.4569 9.86023 23.7488 10.0814 23.971C10.3026 24.1932 10.5939 24.332 10.9058 24.3639L11.0438 24.3704H19.055C19.7069 24.3704 20.2599 23.9086 20.3859 23.2818L20.4076 23.1449L21.1333 9.05185ZM15.0494 5.62963C14.5722 5.62965 13.7457 6.00988 13.3111 6.44444C12.8765 6.87901 12.8765 6.87901 12.4565 7.53086H17.6568C17.2222 6.87901 17.1442 6.801 16.7877 6.44444C16.4311 6.08789 15.5536 5.62963 15.0494 5.62963Z" fill="#2F3D50"/>
<path d="M17 12.2071V23L17.2484 21.7581C17.7482 19.2588 18 16.7163 18 14.1675V12.2071C18 11.7617 17.4614 11.5386 17.1464 11.8536C17.0527 11.9473 17 12.0745 17 12.2071Z" fill="#2F3D50"/>
<path d="M13 12.2071V23L12.7516 21.7581C12.2518 19.2588 12 16.7163 12 14.1675V12.2071C12 11.7617 12.5386 11.5386 12.8536 11.8536C12.9473 11.9473 13 12.0745 13 12.2071Z" fill="#2F3D50"/>
</svg>
