<svg width="185" height="175" viewBox="0 0 185 175" fill="none" xmlns="http://www.w3.org/2000/svg">
<path d="M15.9252 43.1594C13.2289 43.1594 10.4693 42.6953 7.64662 41.7671C4.86603 40.7968 2.31716 39.2991 0 37.274L6.19313 29.8065C7.75194 30.9878 9.41609 31.9582 11.1856 32.7176C12.955 33.4348 14.7877 33.7934 16.6835 33.7934C18.3266 33.7934 19.4852 33.5614 20.1593 33.0973C20.8755 32.6332 21.2336 32.0636 21.2336 31.3886C21.2336 30.798 21.0861 30.3128 20.7912 29.9331C20.5384 29.5112 20.1593 29.1526 19.6537 28.8573C19.1481 28.5198 18.5162 28.2033 17.7579 27.908C17.0416 27.6127 16.2201 27.2752 15.2932 26.8955L10.1744 24.7439C8.99478 24.322 7.87834 23.7735 6.82508 23.0985C5.77183 22.3813 4.84497 21.5586 4.04449 20.6304C3.28615 19.6601 2.67526 18.5632 2.21183 17.3397C1.7484 16.1162 1.51668 14.7662 1.51668 13.2895C1.51668 11.5176 1.89586 9.87223 2.6542 8.35342C3.41254 6.79243 4.46579 5.44238 5.81396 4.30328C7.20425 3.12198 8.84733 2.19383 10.7432 1.5188C12.6812 0.843778 14.8298 0.506265 17.1891 0.506265C19.6326 0.506265 22.0762 0.94925 24.5197 1.83522C26.9633 2.72119 29.1962 4.11343 31.2184 6.01193L25.7836 12.8466C24.3091 11.8762 22.8767 11.1379 21.4864 10.6316C20.1382 10.1254 18.4951 9.87223 16.5571 9.87223C15.3354 9.87223 14.3453 10.1043 13.587 10.5683C12.8708 10.9902 12.5127 11.6864 12.5127 12.6567C12.5127 13.1208 12.6601 13.5427 12.955 13.9224C13.2499 14.2599 13.6712 14.5763 14.2189 14.8716C14.7666 15.1669 15.4407 15.4623 16.2412 15.7576C17.0416 16.0529 17.9474 16.3904 18.9586 16.7701L23.6982 18.7319C26.4788 19.7445 28.6064 21.1578 30.0809 22.9719C31.5976 24.786 32.3559 27.1275 32.3559 29.9964C32.3559 31.7261 31.9978 33.3926 31.2816 34.9958C30.5654 36.599 29.5122 38.0123 28.1219 39.2358C26.7316 40.4171 25.0042 41.3663 22.9399 42.0835C20.9176 42.8007 18.5794 43.1594 15.9252 43.1594Z" fill="#9E203C"/>
<path d="M50.8475 22.4024L50.2155 25.2501H57.5461L56.9142 22.4024C56.4508 20.4195 55.9452 18.2889 55.3975 16.0107C54.8919 13.6903 54.4075 11.4754 53.944 9.36596H53.6912C53.2278 11.4754 52.7433 13.6903 52.2377 16.0107C51.7743 18.2889 51.3109 20.4195 50.8475 22.4024ZM35.1118 42.3999L47.4981 1.26567H60.6427L73.029 42.3999H61.5274L59.5052 33.6668H48.2565L46.2342 42.3999H35.1118Z" fill="#9E203C"/>
<path d="M85.3905 42.3999L73.2571 1.26567H84.7586L89.0559 19.2382C89.6457 21.432 90.1513 23.6047 90.5725 25.7564C90.9939 27.8658 91.4994 30.0386 92.0892 32.2746H92.342C92.9318 30.0386 93.4374 27.8658 93.8587 25.7564C94.3221 23.6047 94.8277 21.432 95.3754 19.2382L99.5463 1.26567H110.669L98.5351 42.3999H85.3905Z" fill="#9E203C"/>
<path d="M116.205 42.3999V1.26567H144.137V10.3785H127.075V16.8334H141.61V25.9462H127.075V33.2871H144.769V42.3999H116.205Z" fill="#9E203C"/>
<path d="M164.209 25.6931L162.692 9.36596L162.313 0H173.182L172.803 9.36596L171.287 25.6931H164.209ZM167.748 43.1594C165.725 43.1594 164.061 42.5054 162.755 41.1976C161.449 39.8475 160.796 38.16 160.796 36.1349C160.796 34.1098 161.449 32.4644 162.755 31.1988C164.061 29.8909 165.725 29.237 167.748 29.237C169.77 29.237 171.434 29.8909 172.74 31.1988C174.046 32.4644 174.699 34.1098 174.699 36.1349C174.699 38.16 174.046 39.8475 172.74 41.1976C171.434 42.5054 169.77 43.1594 167.748 43.1594Z" fill="#9E203C"/>
<path d="M15.9252 109.08C13.2289 109.08 10.4693 108.616 7.64662 107.687C4.86603 106.717 2.31716 105.219 0 103.194L6.19313 95.7269C7.75194 96.9081 9.41609 97.8785 11.1856 98.6379C12.955 99.3551 14.7877 99.7137 16.6835 99.7137C18.3266 99.7137 19.4852 99.4817 20.1593 99.0176C20.8755 98.5535 21.2336 97.984 21.2336 97.3089C21.2336 96.7183 21.0861 96.2331 20.7912 95.8534C20.5384 95.4315 20.1593 95.0729 19.6537 94.7776C19.1481 94.4401 18.5162 94.1237 17.7579 93.8283C17.0416 93.533 16.2201 93.1955 15.2932 92.8158L10.1744 90.6642C8.99478 90.2423 7.87834 89.6938 6.82508 89.0188C5.77183 88.3016 4.84497 87.4789 4.04449 86.5507C3.28615 85.5804 2.67526 84.4835 2.21183 83.26C1.7484 82.0365 1.51668 80.6865 1.51668 79.2099C1.51668 77.4379 1.89586 75.7925 2.6542 74.2737C3.41254 72.7127 4.46579 71.3627 5.81396 70.2236C7.20425 69.0423 8.84733 68.1141 10.7432 67.4391C12.6812 66.7641 14.8298 66.4266 17.1891 66.4266C19.6326 66.4266 22.0762 66.8696 24.5197 67.7555C26.9633 68.6415 29.1962 70.0337 31.2184 71.9322L25.7836 78.7669C24.3091 77.7965 22.8767 77.0582 21.4864 76.5519C20.1382 76.0457 18.4951 75.7925 16.5571 75.7925C15.3354 75.7925 14.3453 76.0246 13.587 76.4887C12.8708 76.9106 12.5127 77.6067 12.5127 78.577C12.5127 79.0411 12.6601 79.463 12.955 79.8427C13.2499 80.1802 13.6712 80.4966 14.2189 80.7919C14.7666 81.0873 15.4407 81.3826 16.2412 81.6779C17.0416 81.9732 17.9474 82.3107 18.9586 82.6904L23.6982 84.6522C26.4788 85.6648 28.6064 87.0781 30.0809 88.8922C31.5976 90.7064 32.3559 93.0478 32.3559 95.9167C32.3559 97.6464 31.9978 99.3129 31.2816 100.916C30.5654 102.519 29.5122 103.933 28.1219 105.156C26.7316 106.337 25.0042 107.287 22.9399 108.004C20.9176 108.721 18.5794 109.08 15.9252 109.08Z" fill="#9E203C"/>
<path d="M39.1563 108.32V67.186H54.576C56.7667 67.186 58.8522 67.418 60.8323 67.8821C62.8545 68.304 64.6029 69.0634 66.0775 70.1603C67.5942 71.215 68.7949 72.6284 69.6796 74.4003C70.5644 76.1301 71.0067 78.2817 71.0067 80.8552C71.0067 83.3866 70.5433 85.5593 69.6164 87.3734C68.7317 89.1876 67.531 90.6853 66.0143 91.8666C64.4976 93.0057 62.7492 93.8705 60.7691 94.4612C58.789 95.0096 56.7246 95.2839 54.576 95.2839H50.0259V108.32H39.1563ZM50.0259 86.6773H54.0704C56.219 86.6773 57.7989 86.171 58.81 85.1585C59.8633 84.146 60.3899 82.7115 60.3899 80.8552C60.3899 78.9989 59.8422 77.691 58.7469 76.9316C57.6515 76.1722 56.0927 75.7925 54.0704 75.7925H50.0259V86.6773Z" fill="#9E203C"/>
<path d="M91.9628 109.08C89.4772 109.08 87.2021 108.637 85.1378 107.751C83.0734 106.823 81.3039 105.473 79.8294 103.701C78.3548 101.886 77.1962 99.6504 76.3536 96.9925C75.5532 94.2924 75.1529 91.1493 75.1529 87.5633C75.1529 84.1038 75.5532 81.0662 76.3536 78.4504C77.1962 75.7925 78.3548 73.5776 79.8294 71.8057C81.3039 70.0337 83.0734 68.7048 85.1378 67.8188C87.2021 66.8907 89.4772 66.4266 91.9628 66.4266C94.4485 66.4266 96.7235 66.8907 98.7879 67.8188C100.852 68.7048 102.622 70.0337 104.096 71.8057C105.571 73.5776 106.708 75.7925 107.509 78.4504C108.351 81.0662 108.773 84.1038 108.773 87.5633C108.773 91.1493 108.351 94.2924 107.509 96.9925C106.708 99.6504 105.571 101.886 104.096 103.701C102.622 105.473 100.852 106.823 98.7879 107.751C96.7235 108.637 94.4485 109.08 91.9628 109.08ZM91.9628 99.7137C93.7323 99.7137 95.1226 98.7223 96.1337 96.7394C97.1449 94.7565 97.6504 91.6978 97.6504 87.5633C97.6504 83.5975 97.1449 80.6443 96.1337 78.7036C95.1226 76.7629 93.7323 75.7925 91.9628 75.7925C90.1934 75.7925 88.8031 76.7629 87.792 78.7036C86.7808 80.6443 86.2753 83.5975 86.2753 87.5633C86.2753 91.6978 86.7808 94.7565 87.792 96.7394C88.8031 98.7223 90.1934 99.7137 91.9628 99.7137Z" fill="#9E203C"/>
<path d="M114.562 108.32V67.186H129.855C132.046 67.186 134.131 67.3969 136.112 67.8188C138.134 68.2407 139.882 68.9579 141.357 69.9705C142.873 70.983 144.074 72.3541 144.959 74.0839C145.844 75.7714 146.286 77.902 146.286 80.4755C146.286 83.4288 145.675 85.8757 144.453 87.8164C143.274 89.7571 141.673 91.2759 139.651 92.3728L148.561 108.32H136.428L129.35 94.5245H125.432V108.32H114.562ZM125.432 85.9179H129.097C133.478 85.9179 135.669 84.1038 135.669 80.4755C135.669 78.7036 135.1 77.4801 133.963 76.8051C132.868 76.1301 131.246 75.7925 129.097 75.7925H125.432V85.9179Z" fill="#9E203C"/>
<path d="M162.313 108.32V76.2988H150.495V67.186H185V76.2988H173.182V108.32H162.313Z" fill="#9E203C"/>
<path d="M15.9252 175C13.2289 175 10.4693 174.536 7.64662 173.608C4.86603 172.637 2.31716 171.14 0 169.115L6.19313 161.647C7.75194 162.828 9.41609 163.799 11.1856 164.558C12.955 165.275 14.7877 165.634 16.6835 165.634C18.3266 165.634 19.4852 165.402 20.1593 164.938C20.8755 164.474 21.2336 163.904 21.2336 163.229C21.2336 162.639 21.0861 162.153 20.7912 161.774C20.5384 161.352 20.1593 160.993 19.6537 160.698C19.1481 160.36 18.5162 160.044 17.7579 159.749C17.0416 159.453 16.2201 159.116 15.2932 158.736L10.1744 156.584C8.99478 156.163 7.87834 155.614 6.82508 154.939C5.77183 154.222 4.84497 153.399 4.04449 152.471C3.28615 151.501 2.67526 150.404 2.21183 149.18C1.7484 147.957 1.51668 146.607 1.51668 145.13C1.51668 143.358 1.89586 141.713 2.6542 140.194C3.41254 138.633 4.46579 137.283 5.81396 136.144C7.20425 134.963 8.84733 134.034 10.7432 133.359C12.6812 132.684 14.8298 132.347 17.1891 132.347C19.6326 132.347 22.0762 132.79 24.5197 133.676C26.9633 134.562 29.1962 135.954 31.2184 137.853L25.7836 144.687C24.3091 143.717 22.8767 142.979 21.4864 142.472C20.1382 141.966 18.4951 141.713 16.5571 141.713C15.3354 141.713 14.3453 141.945 13.587 142.409C12.8708 142.831 12.5127 143.527 12.5127 144.497C12.5127 144.961 12.6601 145.383 12.955 145.763C13.2499 146.101 13.6712 146.417 14.2189 146.712C14.7666 147.008 15.4407 147.303 16.2412 147.598C17.0416 147.894 17.9474 148.231 18.9586 148.611L23.6982 150.573C26.4788 151.585 28.6064 152.998 30.0809 154.813C31.5976 156.627 32.3559 158.968 32.3559 161.837C32.3559 163.567 31.9978 165.233 31.2816 166.836C30.5654 168.44 29.5122 169.853 28.1219 171.076C26.7316 172.258 25.0042 173.207 22.9399 173.924C20.9176 174.641 18.5794 175 15.9252 175Z" fill="#9E203C"/>
<path d="M48.6356 174.241V142.219H36.8181V133.106H71.3227V142.219H59.5052V174.241H48.6356Z" fill="#9E203C"/>
<path d="M88.7399 154.243L88.1079 157.091H95.4386L94.8066 154.243C94.3432 152.26 93.8376 150.13 93.2899 147.851C92.7844 145.531 92.2999 143.316 91.8365 141.207H91.5837C91.1202 143.316 90.6357 145.531 90.1302 147.851C89.6668 150.13 89.2033 152.26 88.7399 154.243ZM73.0043 174.241L85.3905 133.106H98.5351L110.921 174.241H99.4199L97.3976 165.507H86.1489L84.1266 174.241H73.0043Z" fill="#9E203C"/>
<path d="M124.42 174.241V142.219H112.603V133.106H147.108V142.219H135.29V174.241H124.42Z" fill="#9E203C"/>
<path d="M167.495 175C164.799 175 162.039 174.536 159.216 173.608C156.436 172.637 153.887 171.14 151.57 169.115L157.763 161.647C159.322 162.828 160.986 163.799 162.755 164.558C164.525 165.275 166.357 165.634 168.253 165.634C169.896 165.634 171.055 165.402 171.729 164.938C172.445 164.474 172.803 163.904 172.803 163.229C172.803 162.639 172.656 162.153 172.361 161.774C172.108 161.352 171.729 160.993 171.223 160.698C170.718 160.36 170.086 160.044 169.328 159.749C168.611 159.453 167.79 159.116 166.863 158.736L161.744 156.584C160.565 156.163 159.448 155.614 158.395 154.939C157.342 154.222 156.415 153.399 155.614 152.471C154.856 151.501 154.245 150.404 153.782 149.18C153.318 147.957 153.086 146.607 153.086 145.13C153.086 143.358 153.466 141.713 154.224 140.194C154.982 138.633 156.036 137.283 157.384 136.144C158.774 134.963 160.417 134.034 162.313 133.359C164.251 132.684 166.4 132.347 168.759 132.347C171.202 132.347 173.646 132.79 176.089 133.676C178.533 134.562 180.766 135.954 182.788 137.853L177.353 144.687C175.879 143.717 174.446 142.979 173.056 142.472C171.708 141.966 170.065 141.713 168.127 141.713C166.905 141.713 165.915 141.945 165.157 142.409C164.44 142.831 164.082 143.527 164.082 144.497C164.082 144.961 164.23 145.383 164.525 145.763C164.82 146.101 165.241 146.417 165.789 146.712C166.336 147.008 167.01 147.303 167.811 147.598C168.611 147.894 169.517 148.231 170.528 148.611L175.268 150.573C178.049 151.585 180.176 152.998 181.651 154.813C183.167 156.627 183.926 158.968 183.926 161.837C183.926 163.567 183.568 165.233 182.851 166.836C182.135 168.44 181.082 169.853 179.692 171.076C178.301 172.258 176.574 173.207 174.51 173.924C172.487 174.641 170.149 175 167.495 175Z" fill="#9E203C"/>
</svg>
