<svg width="30" height="30" viewBox="0 0 30 30" fill="none" xmlns="http://www.w3.org/2000/svg">
    <path
        d="M6.2 6C4.979 6 4 7.00125 4 8.25V21.75C4 22.3467 4.23178 22.919 4.64436 23.341C5.05694 23.7629 5.61652 24 6.2 24H23.8C24.3835 24 24.9431 23.7629 25.3556 23.341C25.7682 22.919 26 22.3467 26 21.75V8.25C26 7.65326 25.7682 7.08097 25.3556 6.65901C24.9431 6.23705 24.3835 6 23.8 6H6.2ZM6.2 8.25H13.9V10.6463C11.964 11.1638 10.6 12.9525 10.6 15C10.6026 15.9966 10.9278 16.9642 11.5248 17.7518C12.1218 18.5395 12.957 19.1027 13.9 19.3538V21.75H6.2V19.5H9.5V10.5H6.2V8.25ZM16.1 8.25H23.8V10.5H20.6222V19.5H23.8V21.75H16.1V19.3538C18.036 18.8363 19.4 17.0475 19.4 15C19.3974 14.0034 19 12.5 18.4752 12C18.2129 11.75 18 11 16.1 10.6463V8.25ZM6.2 11.5H8.5V18.5H6.2V11.5ZM21.5 11.5H23.8V18.5H21.5V11.5ZM16.1 11.5C17 11.5 18.4752 12.6984 18.4752 15C18.4752 17.3016 17 18.5 16.1 18.5V11.5ZM14 11.5V18.5C13 18.5 11.5248 16.9462 11.5248 15C11.5248 12.9056 13 11.5 14 11.5Z"
        fill="#000" />
</svg>
