<svg width="30" height="30" viewBox="0 0 30 30" fill="none" xmlns="http://www.w3.org/2000/svg">
    <path
        d="M15 25L6 20V10L15 5L24 10V20L15 25ZM15 7V7C13.0142 8.65485 10.7639 9.96354 8.34352 10.8712L8 11V11C8.33204 13.656 8.33197 16.344 8 19V19V19C10.4296 19.9966 12.7345 21.2734 14.8681 22.8044L15 22.8991L15.3591 22.6529C17.448 21.2211 19.6723 19.9976 22 19V19V19C21.668 16.344 21.668 13.656 22 11V11L21.8966 10.9597C19.4127 9.99205 17.088 8.65729 15 7V7ZM15 18.6364C14.1233 18.6365 13.2736 18.345 12.5958 17.8114C11.9179 17.2778 11.4539 16.5352 11.2827 15.7101C11.1115 14.885 11.2437 14.0285 11.6568 13.2864C12.07 12.5444 12.7385 11.9628 13.5484 11.6407C14.3583 11.3186 15.2596 11.276 16.0986 11.52C16.9376 11.7641 17.6625 12.2798 18.1497 12.9792C18.6369 13.6787 18.8563 14.5186 18.7705 15.3559C18.6847 16.1931 18.299 16.9759 17.6792 17.5709C16.9671 18.2506 16.0044 18.6335 15 18.6364ZM15 13.1818C14.7512 13.1818 14.5048 13.2287 14.2749 13.32C14.045 13.4114 13.8361 13.5452 13.6601 13.714C13.4841 13.8828 13.3445 14.0832 13.2492 14.3038C13.1539 14.5244 13.1049 14.7608 13.1048 14.9995C13.1047 15.2383 13.1537 15.4748 13.2488 15.6954C13.344 15.916 13.4835 16.1165 13.6594 16.2853C13.8353 16.4542 14.0441 16.5882 14.274 16.6796C14.5039 16.771 14.7502 16.8181 14.9991 16.8182C15.5016 16.8183 15.9836 16.6269 16.339 16.286C16.6944 15.9451 16.8941 15.4827 16.8943 15.0005C16.8944 14.5182 16.6949 14.0557 16.3396 13.7147C15.9844 13.3736 15.5025 13.1819 15 13.1818Z"
        fill="#000" />
</svg>
