<svg width="30" height="30" viewBox="0 0 30 30" fill="none" xmlns="http://www.w3.org/2000/svg">
    <path fill-rule="evenodd" clip-rule="evenodd"
        d="M13 5C13 8 15 8 15 8C15 8 17 8 17 5H23C24.1046 5 25 5.89543 25 7V9C25 10.1046 24.1046 11 23 11H22L21.6991 12.5045C21.2342 14.8292 21 17.194 21 19.5647V25H9V19.5647C9 17.194 8.76583 14.8292 8.3009 12.5045L8 11H7C5.89543 11 5 10.1046 5 9V7C5 5.89543 5.89543 5 7 5H13ZM7.99997 7.00018C7.4477 7.00021 7.00001 7.44794 7.00001 8.00021V8.00021C7.00001 8.55249 7.44773 9.00023 8.00001 9.00023H10L10.4673 12.2712C10.822 14.7539 11 17.2587 11 19.7667V23H19V19.7668C19 17.2588 19.178 14.7539 19.5327 12.2711L20 9.00023H23V7.00023L18 7C17.5 9.5 15 9.5 15 9.5C15 9.5 12.5 9.5 12 7L7.99997 7.00018Z"
        fill="#000" />
    <path d="M13 5C11.9485 5.00002 13.3771 5.00007 13 5C12.7235 5 13.3744 4.99999 13 5Z"
        fill="#000" />
    <path
        d="M14.63 16.98V13.52C14.4433 13.6533 14.23 13.7733 13.99 13.88C13.75 13.98 13.5467 14.06 13.38 14.12L12.98 13.1C13.14 13.04 13.3133 12.9633 13.5 12.87C13.6867 12.7767 13.8733 12.6733 14.06 12.56C14.2467 12.4467 14.4233 12.3267 14.59 12.2C14.7567 12.0733 14.9 11.9433 15.02 11.81H15.86V16.98H17.09V18H13.33V16.98H14.63Z"
        fill="#000" />
</svg>
