<svg width="30" height="30" viewBox="0 0 30 30" fill="none" xmlns="http://www.w3.org/2000/svg">
<path fill-rule="evenodd" clip-rule="evenodd" d="M15 4C11.4444 6.44444 7 6.93333 7 6.93333V15.0111C7 17.6414 8.15057 20.1399 10.1491 21.8498L15 26L19.8509 21.8498C21.8494 20.1399 23 17.6414 23 15.0111V6.93333C23 6.93333 18.5556 6.44444 15 4ZM21.3687 7.86471C17.7537 7.03747 15.6308 5.63079 15 5C12.8793 6.51479 10.6247 7.36032 9.14874 7.75384L8 8C8.28304 7.95957 8.67595 7.87989 9.14874 7.75384L15 6.5L21.3687 7.86471ZM22 8C21.7847 7.95695 21.5743 7.91177 21.3687 7.86471L22 8Z" fill="black"/>
</svg>
