<svg width="30" height="30" viewBox="0 0 30 30" fill="none" xmlns="http://www.w3.org/2000/svg">
<path fill-rule="evenodd" clip-rule="evenodd" d="M10.4076 6H7.85622C7.85622 6 4.31432 14.5471 7.01572 18.9545C8.9988 22.19 15 25 15 25C15 25 21.0012 22.19 22.9843 18.9545C25.6857 14.5471 22.1438 6 22.1438 6H10.9178C8.6704 10.0939 8.40172 12.8941 8.37038 14.4004C8.42042 10.6017 8.95379 9.15762 10.4076 6ZM8.37038 14.4004C8.36609 14.6067 8.36625 14.7887 8.36639 14.9465C8.36641 14.9734 8.36643 14.9995 8.36643 15.025C8.36644 14.8098 8.36773 14.6018 8.37038 14.4004Z" fill="black"/>
</svg>
