<svg width="30" height="30" viewBox="0 0 30 30" fill="none" xmlns="http://www.w3.org/2000/svg">
<path fill-rule="evenodd" clip-rule="evenodd" d="M15.0001 6.72727C11.9689 6.72727 8.00006 5 8.00006 5L6.87298 12.3004C6.34029 15.7508 7.8511 19.1979 10.7492 21.1446L15.0001 24L19.2509 21.1446C22.149 19.1979 23.6598 15.7508 23.1271 12.3004L22.0001 5C22.0001 5 18.0313 6.72727 15.0001 6.72727ZM13.1719 21.999C12.6076 21.6076 12.1141 21.1141 11.0001 20C13.2275 22.0109 14.1168 22.0053 14.8884 22.0005C14.9258 22.0002 14.963 22 15.0001 22C15.8001 22 16.8268 22 19.0001 20C17.886 21.1141 17.3925 21.6076 16.8282 21.999C16.3795 22.3103 15.886 22.557 15.0001 23C14.1141 22.557 13.6206 22.3103 13.1719 21.999Z" fill="black"/>
</svg>
