<svg width="30" height="30" viewBox="0 0 30 30" fill="none" xmlns="http://www.w3.org/2000/svg">
<path fill-rule="evenodd" clip-rule="evenodd" d="M10.7828 4.5272L7 5.00005V18.7831C7 20.1622 7.71048 21.4441 8.88 22.1751L15 26.0001L21.12 22.1751C22.2895 21.4441 23 20.1622 23 18.7831V5.00005L19.2172 4.5272C16.4166 4.17713 13.5834 4.17713 10.7828 4.5272ZM15 5.50005C17.7406 5.50005 22 6.00005 22 6.00005V7.00005C22 7.00005 17.7406 6.50005 15 6.50005C12.2594 6.50005 8 7.00005 8 7.00005V6.00005C8 6.00005 12.2594 5.50005 15 5.50005Z" fill="black"/>
</svg>
